<?xml version="1.0" standalone="no"?>
<!DOCTYPE svg PUBLIC "-//W3C//DTD SVG 1.1//EN" "http://www.w3.org/Graphics/SVG/1.1/DTD/svg11.dtd" >
<svg xmlns="http://www.w3.org/2000/svg">
<metadata>Generated by IcoMoon</metadata>
<defs>
<font id="icomoon" horiz-adv-x="512">
<font-face units-per-em="512" ascent="480" descent="-32" />
<missing-glyph horiz-adv-x="512" />
<glyph unicode="&#x20;" d="" horiz-adv-x="256" />
<glyph unicode="&#xe600;" d="M371.498 328.832c-16.64 16.661-43.69 16.661-60.33 0l-55.168-55.168-55.168 55.168c-16.64 16.661-43.69 16.661-60.331 0-16.662-16.661-16.662-43.67 0-60.33l55.147-55.168-55.147-55.168c-16.662-16.661-16.662-43.669 0-60.331 8.32-8.341 19.243-12.502 30.166-12.502s21.845 4.16 30.166 12.502l55.168 55.168 55.168-55.168c8.32-8.341 19.243-12.502 30.166-12.502s21.846 4.16 30.166 12.502c16.661 16.661 16.661 43.669 0 60.331l-55.147 55.168 55.147 55.168c16.661 16.661 16.661 43.669 0 60.33z" />
<glyph unicode="&#xe601;" d="M362.070 335.979c-20.63 11.477-46.613 4.010-58.026-16.576l-79.21-142.55-45.333 45.334c-16.661 16.662-43.669 16.662-60.331 0s-16.662-43.67 0-60.33l85.333-85.334c8.064-8.086 18.944-12.522 30.166-12.522 1.963 0 3.946 0.128 5.91 0.426 13.248 1.856 24.874 9.813 31.381 21.526l106.666 192c11.456 20.608 4.032 46.57-16.555 58.026z" />
<glyph unicode="&#xe602;" d="M384 256h-85.334v85.334c0 23.552-19.115 42.666-42.666 42.666s-42.666-19.114-42.666-42.666l1.514-85.334h-86.848c-23.552 0-42.666-19.114-42.666-42.667s19.115-42.666 42.666-42.666l86.848 1.514-1.514-86.848c0-23.552 19.114-42.666 42.666-42.666s42.666 19.115 42.666 42.666v86.848l85.334-1.514c23.552 0 42.666 19.115 42.666 42.666s-19.115 42.667-42.666 42.667z" />
<glyph unicode="&#xe603;" d="M384 234.667h-256c-23.552 0-42.666-19.115-42.666-42.667s19.115-42.666 42.666-42.666h256c23.552 0 42.666 19.115 42.666 42.666s-19.115 42.667-42.666 42.667z" />
<glyph unicode="&#xe604;" d="M384 320h-256c-23.552 0-42.666-19.114-42.666-42.666s19.115-42.667 42.666-42.667h256c23.552 0 42.666 19.114 42.666 42.667s-19.115 42.666-42.666 42.666zM384 170.667h-256c-23.552 0-42.666-19.115-42.666-42.666s19.115-42.666 42.666-42.666h256c23.552 0 42.666 19.115 42.666 42.666s-19.115 42.666-42.666 42.666z" />
<glyph unicode="&#xe605;" d="M304 341.333c0-26.51-21.49-48-48-48s-48 21.49-48 48c0 26.51 21.49 48 48 48s48-21.49 48-48zM304 85.333c0-26.51-21.49-48-48-48s-48 21.49-48 48c0 26.51 21.49 48 48 48s48-21.49 48-48zM384 256h-256c-23.552 0-42.666-19.114-42.666-42.667s19.115-42.666 42.666-42.666h256c23.552 0 42.666 19.115 42.666 42.666s-19.115 42.667-42.666 42.667z" />
<glyph unicode="&#xe606;" d="M183.168 350.165c-16.661-16.662-16.661-43.67 0-60.331l76.48-76.502-76.48-76.501c-16.661-16.661-16.661-43.669 0-60.331 8.32-8.341 19.243-12.502 30.166-12.502s21.846 4.16 30.166 12.502l136.853 136.832-136.853 136.832c-16.64 16.661-43.69 16.661-60.331 0z" />
<glyph unicode="&#xe607;" d="M307.498 350.165c-16.64 16.661-43.69 16.661-60.331 0l-136.853-136.832 136.853-136.832c8.32-8.341 19.242-12.502 30.165-12.502s21.846 4.16 30.166 12.502c16.661 16.661 16.661 43.669 0 60.331l-76.48 76.502 76.48 76.501c16.661 16.662 16.661 43.67 0 60.331z" />
<glyph unicode="&#xe608;" d="M225.834 328.832c-16.661-16.618-16.661-43.67 0-60.33l33.834-33.835h-154.538c-23.552 0-42.666-19.094-42.666-42.667 0-23.552 19.115-42.666 42.666-42.666h154.538l-33.834-33.834c-16.661-16.618-16.661-43.669 0-60.331 8.341-8.341 19.243-12.502 30.166-12.502s21.824 4.16 30.166 12.502l136.832 136.832-136.832 136.832c-16.661 16.661-43.669 16.661-60.331 0z" />
<glyph unicode="&#xe609;" d="M384 234.667h-154.538l33.834 33.834c16.661 16.661 16.661 43.712 0 60.33-16.661 16.662-43.669 16.662-60.331 0l-136.832-136.832 136.832-136.832c8.32-8.341 19.243-12.502 30.166-12.502s21.824 4.16 30.165 12.502c16.661 16.661 16.661 43.712 0 60.33l-33.834 33.834h154.538c23.552 0 42.666 19.115 42.666 42.666 0 23.574-19.115 42.667-42.666 42.667z" />
<glyph unicode="&#xe60a;" d="M160 64c0-29.455-23.878-53.334-53.334-53.334s-53.334 23.878-53.334 53.334c0 29.455 23.878 53.334 53.334 53.334s53.334-23.878 53.334-53.334zM160 213.333c0-29.455-23.878-53.334-53.334-53.334s-53.334 23.878-53.334 53.334c0 29.455 23.878 53.334 53.334 53.334s53.334-23.878 53.334-53.334zM160 362.667c0-29.455-23.878-53.333-53.334-53.333s-53.334 23.878-53.334 53.333c0 29.455 23.878 53.334 53.334 53.334s53.334-23.878 53.334-53.334zM309.334 64c0-29.455-23.878-53.334-53.334-53.334s-53.334 23.878-53.334 53.334c0 29.455 23.878 53.334 53.334 53.334s53.334-23.878 53.334-53.334zM309.334 213.333c0-29.455-23.878-53.334-53.334-53.334s-53.334 23.878-53.334 53.334c0 29.455 23.878 53.334 53.334 53.334s53.334-23.878 53.334-53.334zM309.334 362.667c0-29.455-23.878-53.333-53.334-53.333s-53.334 23.878-53.334 53.333c0 29.455 23.878 53.334 53.334 53.334s53.334-23.878 53.334-53.334zM458.666 64c0-29.455-23.878-53.334-53.334-53.334s-53.334 23.878-53.334 53.334c0 29.455 23.878 53.334 53.334 53.334s53.334-23.878 53.334-53.334zM458.666 213.333c0-29.455-23.878-53.334-53.334-53.334s-53.334 23.878-53.334 53.334c0 29.455 23.878 53.334 53.334 53.334s53.334-23.878 53.334-53.334zM458.666 362.667c0-29.455-23.878-53.333-53.334-53.333s-53.334 23.878-53.334 53.333c0 29.455 23.878 53.334 53.334 53.334s53.334-23.878 53.334-53.334z" />
<glyph unicode="&#xe60b;" d="M405.334 106.667h-298.666c-23.531 0-42.666-19.136-42.666-42.666s19.136-42.666 42.666-42.666h298.666c23.531 0 42.666 19.136 42.666 42.666s-19.136 42.666-42.666 42.666zM405.334 256h-298.666c-23.531 0-42.666-19.136-42.666-42.667s19.136-42.666 42.666-42.666h298.666c23.531 0 42.666 19.136 42.666 42.666s-19.136 42.667-42.666 42.667zM405.334 405.333h-298.666c-23.531 0-42.666-19.136-42.666-42.667s19.136-42.666 42.666-42.666h298.666c23.531 0 42.666 19.136 42.666 42.666s-19.136 42.667-42.666 42.667z" />
<glyph unicode="&#xe60c;" d="M405.334 106.667h-149.334c-23.53 0-42.666-19.136-42.666-42.666s19.136-42.666 42.666-42.666h149.333c23.531 0 42.666 19.136 42.666 42.666s-19.136 42.666-42.666 42.666zM405.334 256h-149.334c-23.53 0-42.666-19.136-42.666-42.667s19.136-42.666 42.666-42.666h149.333c23.531 0 42.666 19.136 42.666 42.666s-19.136 42.667-42.666 42.667zM405.334 405.333h-149.334c-23.53 0-42.666-19.136-42.666-42.667s19.136-42.666 42.666-42.666h149.333c23.531 0 42.666 19.136 42.666 42.666s-19.136 42.667-42.666 42.667zM160 64c0-29.455-23.878-53.334-53.334-53.334s-53.334 23.878-53.334 53.334c0 29.455 23.878 53.334 53.334 53.334s53.334-23.878 53.334-53.334zM160 213.333c0-29.455-23.878-53.334-53.334-53.334s-53.334 23.878-53.334 53.334c0 29.455 23.878 53.334 53.334 53.334s53.334-23.878 53.334-53.334zM160 362.667c0-29.455-23.878-53.333-53.334-53.333s-53.334 23.878-53.334 53.333c0 29.455 23.878 53.334 53.334 53.334s53.334-23.878 53.334-53.334z" />
<glyph unicode="&#xe60d;" d="M170.667 405.333h-42.667c-17.6 0-33.6-7.19-45.206-18.795s-18.794-27.606-18.794-45.205v-42.667c0-17.6 7.189-33.6 18.794-45.205s27.606-18.794 45.206-18.794h42.666c17.6 0 33.6 7.19 45.206 18.794s18.794 27.606 18.794 45.205v42.667c0 17.6-7.19 33.6-18.794 45.205s-27.606 18.795-45.206 18.795zM384 405.333h-42.666c-17.6 0-33.6-7.19-45.205-18.795s-18.794-27.606-18.794-45.205v-42.667c0-17.6 7.19-33.6 18.794-45.205s27.606-18.794 45.206-18.794h42.666c17.6 0 33.6 7.19 45.205 18.794s18.794 27.606 18.794 45.205v42.667c0 17.6-7.19 33.6-18.794 45.205s-27.606 18.795-45.206 18.795zM170.667 192h-42.667c-17.6 0-33.6-7.19-45.206-18.795s-18.794-27.606-18.794-45.206v-42.666c0-17.6 7.189-33.6 18.794-45.205s27.606-18.794 45.206-18.794h42.666c17.6 0 33.6 7.19 45.206 18.794s18.794 27.606 18.794 45.206v42.666c0 17.6-7.19 33.6-18.794 45.205s-27.606 18.794-45.206 18.794zM384 192h-42.666c-17.6 0-33.6-7.19-45.205-18.795s-18.794-27.606-18.794-45.206v-42.666c0-17.6 7.19-33.6 18.794-45.205s27.606-18.794 45.206-18.794h42.666c17.6 0 33.6 7.19 45.205 18.794s18.794 27.606 18.794 45.206v42.666c0 17.6-7.19 33.6-18.794 45.205s-27.606 18.794-45.206 18.794z" />
<glyph unicode="&#xe60e;" d="M256 405.333c0 0-131.968-113.92-205.718-175.616-4.331-3.925-7.616-9.643-7.616-16.384 0-11.798 9.536-21.334 21.334-21.334h42.666v-149.334c0-11.798 9.536-21.334 21.334-21.334h64c11.798 0 21.334 9.558 21.334 21.334v85.334h85.334v-85.334c0-11.776 9.536-21.334 21.334-21.334h64c11.798 0 21.334 9.536 21.334 21.334v149.333h42.666c11.798 0 21.334 9.536 21.334 21.334 0 6.742-3.286 12.459-8.171 16.384-73.238 61.696-205.162 175.616-205.162 175.616z" />
<glyph unicode="&#xe60f;" d="M277.334 352.021c-5.462 0-10.923-2.070-15.082-6.23-4.16-4.182-6.25-9.642-6.25-15.104v-54.592c-96-10.624-170.667-91.925-170.667-190.742v-21.334c47.893 73.024 112 83.627 170.667 85.099v-53.099c0-5.44 2.091-10.923 6.25-15.082s9.622-6.25 15.082-6.25 10.923 2.091 15.082 6.25l134.25 132.416-134.25 132.438c-4.16 4.16-9.622 6.229-15.082 6.229z" />
<glyph unicode="&#xe610;" d="M256 276.075v54.592c0 5.462-2.090 10.923-6.25 15.104-4.16 4.16-9.621 6.229-15.083 6.229s-10.922-2.070-15.083-6.229l-134.25-132.438 134.25-132.416c4.16-4.16 9.621-6.25 15.083-6.25s10.922 2.091 15.083 6.25 6.25 9.642 6.25 15.082v53.099c58.666-1.45 122.774-12.075 170.667-85.099v21.334c0 98.837-74.666 180.118-170.667 190.742z" />
<glyph unicode="&#xe611;" d="M128.042 128.021c-23.616 0-42.752-19.136-42.709-42.688 0-23.552 19.114-42.688 42.709-42.645 23.53-0.043 42.667 19.072 42.624 42.645 0.042 23.616-19.094 42.731-42.624 42.688zM128 384c-23.552 0-42.666-19.114-42.666-42.666s19.115-42.667 42.666-42.667c117.632 0 213.333-95.702 213.333-213.334 0-23.552 19.115-42.666 42.666-42.666s42.666 19.115 42.666 42.666c0 164.694-133.974 298.666-298.666 298.666zM128 256c-23.552 0-42.666-19.114-42.666-42.667s19.115-42.666 42.666-42.666c47.040 0 85.334-38.272 85.334-85.334 0-23.552 19.114-42.666 42.666-42.666s42.666 19.115 42.666 42.666c0 94.101-76.565 170.667-170.667 170.667z" />
<glyph unicode="&#xe612;" d="M376.683 356.181c-66.645 65.558-174.698 65.558-241.344 0-66.645-65.578-66.645-171.882 0-237.44l120.661-118.72 120.683 118.72c66.645 65.558 66.645 171.862 0 237.44zM256 181.355c-14.25 0-27.626 5.546-37.718 15.616-20.8 20.8-20.8 54.635 0 75.435 10.070 10.069 23.466 15.616 37.718 15.616s27.648-5.547 37.717-15.616c20.8-20.8 20.8-54.656 0-75.435-10.070-10.070-23.466-15.616-37.718-15.616z" />
<glyph unicode="&#xe613;" d="M389.909 334.485c-9.173 9.173-24.022 9.173-33.195 0l-36.714-36.736-6.57 6.571c-24.918 24.918-68.608 24.918-93.525 0l-89.002-89.002c-12.459-12.459-19.328-29.078-19.328-46.763s6.87-34.304 19.328-46.762l6.571-6.57-36.736-36.736c-9.174-9.173-9.174-24.022 0-33.195 4.587-4.587 10.582-6.87 16.597-6.87s12.011 2.283 16.597 6.87l36.736 36.736 6.571-6.57c12.458-12.459 29.056-19.328 46.763-19.328s34.304 6.87 46.762 19.328l89.002 89.002c12.459 12.459 19.328 29.056 19.328 46.762s-6.87 34.304-19.328 46.762l-6.57 6.571 36.736 36.736c9.152 9.173 9.152 24.022-0.022 33.195zM326.57 197.653l-89.002-89.002c-3.584-3.584-8.576-5.397-13.568-5.397s-9.984 1.792-13.568 5.397l-6.571 6.57 15.403 15.402c9.173 9.173 9.173 24.022 0 33.195-4.587 4.587-10.582 6.87-16.597 6.87s-12.011-2.283-16.597-6.87l-15.403-15.402-6.571 6.57c-3.584 3.584-5.568 8.426-5.568 13.568s1.984 9.984 5.568 13.568l89.002 89.003c3.584 3.584 8.406 5.568 13.568 5.568s9.984-1.984 13.568-5.568l6.57-6.571-15.402-15.403c-9.173-9.173-9.173-24.022 0-33.195 4.587-4.587 10.582-6.87 16.598-6.87s12.010 2.283 16.598 6.87l15.402 15.403 6.57-6.571c3.584-3.584 5.568-8.427 5.568-13.568s-1.984-9.984-5.568-13.568z" />
<glyph unicode="&#xe614;" d="M234.667 287.979c0-29.455-23.878-53.333-53.333-53.333s-53.334 23.878-53.334 53.333c0 29.455 23.878 53.334 53.334 53.334s53.334-23.878 53.334-53.334zM341.334 256c-42.666 0-64-64-96-64s-31.978 21.334-74.666 21.334c-42.666 0-64.022-85.334-64.022-85.334h298.688c0 0-21.334 128-64 128zM426.666 405.333h-341.334c-23.531 0-42.666-19.136-42.666-42.667v-256c0-23.531 19.136-42.666 42.666-42.666h341.334c23.531 0 42.666 19.136 42.666 42.666v256c0 23.531-19.136 42.667-42.666 42.667zM426.666 106.667h-341.334v256h341.334v-256z" />
<glyph unicode="&#xe615;" d="M256 401.664l-136.832-136.832c-16.662-16.661-16.662-43.67 0-60.331s43.669-16.661 60.331 0l33.834 33.835v-154.496c0-23.552 19.094-42.666 42.667-42.666 23.552 0 42.666 19.115 42.666 42.666v154.496l33.834-33.835c8.341-8.341 19.243-12.502 30.166-12.502s21.824 4.16 30.166 12.502c16.661 16.661 16.661 43.67 0 60.331l-136.832 136.832z" />
<glyph unicode="&#xe616;" d="M392.832 242.005c-16.661 16.661-43.669 16.661-60.331 0l-33.834-33.835v154.496c0 23.573-19.115 42.666-42.666 42.666-23.573 0-42.666-19.094-42.666-42.666v-154.496l-33.834 33.835c-16.661 16.662-43.669 16.662-60.331 0s-16.662-43.67 0-60.331l136.832-136.832 136.832 136.832c16.661 16.661 16.661 43.648 0 60.331z" />
<glyph unicode="&#xe617;" d="M406.699 253.675l25.152 50.923c1.579 3.178 1.45 6.976-0.32 10.048-1.771 3.093-4.992 5.077-8.555 5.312l-56.661 3.669-3.67 56.661c-0.235 3.563-2.219 6.762-5.312 8.555s-6.87 1.92-10.070 0.32l-50.88-25.173-31.51 47.254c-3.968 5.93-13.781 5.93-17.75 0l-31.51-47.254-50.88 25.173c-3.221 1.6-6.976 1.472-10.070-0.32-3.094-1.771-5.077-4.992-5.312-8.555l-3.648-56.661-56.683-3.648c-3.563-0.234-6.784-2.218-8.555-5.312-1.792-3.093-1.898-6.869-0.32-10.069l25.152-50.902-47.232-31.51c-2.965-1.984-4.758-5.312-4.758-8.875s1.77-6.89 4.758-8.875l47.254-31.51-25.174-50.901c-1.579-3.2-1.451-6.976 0.32-10.070 1.77-3.072 4.992-5.077 8.555-5.291l56.661-3.648 3.648-56.683c0.234-3.563 2.219-6.762 5.312-8.555 3.072-1.771 6.827-1.877 10.070-0.32l50.901 25.152 31.51-47.232c1.984-2.966 5.312-4.757 8.875-4.757s6.89 1.771 8.875 4.757l31.51 47.232 50.901-25.152c3.2-1.558 6.976-1.45 10.070 0.32s5.077 4.992 5.312 8.555l3.648 56.661 56.661 3.67c3.563 0.235 6.762 2.219 8.555 5.312 1.771 3.094 1.899 6.87 0.32 10.070l-25.152 50.88 47.232 31.531c2.966 1.984 4.757 5.312 4.757 8.875s-1.771 6.891-4.757 8.875l-47.232 31.467z" />
<glyph unicode="&#xe618;" d="M459.861 231.061l-39.445 26.282 20.992 42.518c3.158 6.4 2.923 13.952-0.64 20.117-3.584 6.187-9.984 10.176-17.11 10.624l-47.317 3.050-3.072 47.317c-0.426 7.125-4.438 13.546-10.603 17.109-6.187 3.563-13.76 3.84-20.118 0.64l-42.474-21.013-26.304 39.445c-7.914 11.882-27.584 11.882-35.499 0l-26.326-39.424-42.496 20.992c-6.379 3.2-13.952 2.923-20.118-0.64-6.186-3.563-10.176-9.984-10.624-17.109l-3.050-47.296-47.317-3.050c-7.126-0.469-13.546-4.459-17.109-10.624s-3.819-13.739-0.64-20.118l20.992-42.517-39.446-26.304c-5.931-3.968-9.493-10.624-9.493-17.75s3.563-13.781 9.493-17.75l39.467-26.304-21.014-42.496c-3.157-6.4-2.922-13.952 0.64-20.118s9.984-10.176 17.109-10.624l47.318-3.050 3.050-47.317c0.448-7.104 4.438-13.526 10.624-17.088s13.696-3.818 20.118-0.661l42.496 21.014 26.304-39.445c3.968-5.93 10.624-9.493 17.75-9.493s13.782 3.563 17.749 9.493l26.304 39.445 42.474-21.014c6.378-3.158 13.93-2.901 20.118 0.64 6.187 3.563 10.176 9.984 10.624 17.11l3.050 47.296 47.339 3.072c7.125 0.448 13.546 4.438 17.11 10.624s3.818 13.738 0.64 20.118l-20.992 42.496 39.445 26.304c5.93 3.968 9.493 10.624 9.493 17.75s-3.563 13.803-9.493 17.75zM373.846 167.125l15.147-30.613-34.133-2.219c-10.709-0.704-19.221-9.216-19.925-19.925l-2.197-34.091-30.613 15.125c-9.6 4.779-21.248 1.642-27.2-7.296l-18.923-28.373-18.965 28.438c-4.075 6.123-10.838 9.493-17.77 9.493-3.179 0-6.4-0.704-9.429-2.219l-30.635-15.125-2.197 34.091c-0.683 10.688-9.216 19.221-19.925 19.925l-34.048 2.197 15.147 30.613c4.757 9.622 1.621 21.269-7.296 27.2l-28.438 18.966 28.416 18.944c8.917 5.952 12.032 17.6 7.296 27.2l-15.147 30.635 34.133 2.197c10.709 0.704 19.221 9.216 19.925 19.925l2.197 34.090 30.613-15.125c9.558-4.714 21.248-1.621 27.2 7.296l18.923 28.394 18.966-28.438c5.952-8.918 17.622-12.011 27.2-7.296l30.635 15.147 2.219-34.112c0.704-10.688 9.238-19.2 19.925-19.904l34.091-2.197-15.125-30.656c-4.757-9.621-1.622-21.248 7.296-27.2l28.416-18.944-28.438-18.966c-8.96-5.909-12.075-17.558-7.339-27.178z" />
<glyph unicode="&#xe619;" d="M199.722 273.963c0 0-67.413-7.466-112.384-12.459-4.053-0.49-7.638-3.2-8.981-7.317s0-8.405 2.987-11.114c33.408-30.486 83.606-76.139 83.606-76.139-0.042 0-13.781-66.411-22.912-110.72-0.768-4.010 0.683-8.256 4.181-10.794 3.477-2.538 7.958-2.582 11.477-0.598 39.339 22.358 98.261 55.978 98.261 55.978s58.944-33.621 98.219-56c3.584-1.962 8.064-1.92 11.541 0.618 3.498 2.538 4.95 6.784 4.16 10.774-9.13 44.33-22.848 110.742-22.848 110.742s50.197 45.654 83.606 76.075c2.986 2.794 4.31 7.083 2.986 11.178s-4.906 6.806-8.96 7.274c-44.971 5.035-112.406 12.502-112.406 12.502s-27.947 61.824-46.57 103.040c-1.75 3.69-5.418 6.272-9.728 6.272s-8-2.603-9.664-6.272c-18.645-41.216-46.571-103.040-46.571-103.040z" />
<glyph unicode="&#xe61a;" d="M362.666 128c-27.84 0-51.264-17.856-60.075-42.666h-67.925c-35.286 0-64 28.714-64 64v64.534c17.877-13.526 39.894-21.866 64-21.866h67.925c8.81-24.81 32.256-42.666 60.075-42.666 35.349 0 64 28.651 64 64s-28.651 64-64 64c-27.84 0-51.264-17.856-60.075-42.666h-67.925c-35.286 0-64 28.714-64 64v3.925c24.81 8.811 42.666 32.256 42.666 60.075 0 35.349-28.65 64-64 64s-64-28.65-64-64c0-27.819 17.856-51.264 42.666-60.075v-153.258c0-58.816 47.85-106.666 106.666-106.666h67.926c8.81-24.81 32.256-42.666 60.075-42.666 35.349 0 64 28.651 64 64s-28.651 64-64 64zM362.666 234.667c11.776 0 21.334-9.578 21.334-21.334s-9.558-21.334-21.334-21.334-21.334 9.579-21.334 21.334 9.558 21.334 21.334 21.334zM149.333 384c11.776 0 21.333-9.578 21.333-21.333s-9.558-21.333-21.334-21.333-21.334 9.578-21.334 21.333 9.557 21.334 21.334 21.334zM362.666 42.667c-11.776 0-21.334 9.579-21.334 21.334s9.558 21.334 21.334 21.334 21.334-9.579 21.334-21.334-9.558-21.334-21.334-21.334z" />
<glyph unicode="&#xe61b;" d="M170.667 117.333v-10.666c36.075 54.998 76.8 84.33 128 85.334 0-22.293 0-60.544 0-64 0-11.755 10.901-21.334 24.384-21.334 7.765 0 14.4 3.37 18.837 8.341 41.238 43.286 127.445 130.326 127.445 130.326s-86.208 87.082-127.466 130.923c-4.438 4.374-11.050 7.744-18.816 7.744-13.483 0-24.384-9.536-24.384-21.334 0-3.584 0-40.042 0-64-99.413 0-128-103.915-128-181.334zM106.666 21.333h298.666c11.798 0 21.334 9.558 21.334 21.334v128.982c-14.166-14.421-29.099-29.717-42.666-43.669v-63.978h-256v256h149.333v42.667h-170.667c-11.797 0-21.334-9.558-21.334-21.334v-298.667c0-11.776 9.536-21.334 21.334-21.334z" />
<glyph unicode="&#xe61c;" d="M256 384c-94.272 0-170.667-76.416-170.667-170.666s76.394-170.667 170.667-170.667 170.667 76.416 170.667 170.667-76.394 170.667-170.667 170.667zM335.082 164.416c8.341-8.341 8.341-21.824 0-30.166-4.16-4.16-9.622-6.25-15.082-6.25s-10.923 2.091-15.082 6.25l-48.918 48.918-48.917-48.918c-4.16-4.16-9.621-6.25-15.083-6.25s-10.923 2.091-15.083 6.25c-8.341 8.341-8.341 21.824 0 30.166l48.917 48.918-48.917 48.918c-8.341 8.341-8.341 21.824 0 30.166s21.824 8.341 30.166 0l48.917-48.917 48.918 48.917c8.341 8.341 21.824 8.341 30.166 0s8.341-21.824 0-30.166l-48.918-48.918 48.918-48.918z" />
<glyph unicode="&#xe61d;" d="M256 405.333c-105.877 0-192-86.144-192-192s86.123-192 192-192 192 86.144 192 192-86.123 192-192 192zM256 64c-82.326 0-149.333 66.987-149.333 149.334s67.008 149.334 149.333 149.334 149.333-66.986 149.333-149.334-67.008-149.333-149.333-149.333zM271.082 213.333l56.448 56.448c4.139 4.139 4.139 10.923 0 15.082-4.16 4.139-10.944 4.139-15.082 0l-56.448-56.448-56.448 56.47c-4.16 4.138-10.944 4.138-15.083 0-4.16-4.16-4.16-10.944 0-15.083l56.448-56.47-56.448-56.448c-4.16-4.16-4.16-10.944 0-15.082 2.070-2.091 4.8-3.136 7.53-3.136s5.462 1.046 7.552 3.115l56.448 56.469 56.448-56.448c2.091-2.091 4.822-3.136 7.552-3.136s5.462 1.046 7.552 3.115c4.139 4.139 4.139 10.923 0 15.082l-56.469 56.469z" />
<glyph unicode="&#xe61e;" d="M362.666 277.333c-2.454 0-4.928-0.107-7.488-0.32-17.6 50.71-65.322 85.654-120.512 85.654-70.592 0-128-57.408-128-128 0-0.896 0-1.792 0.022-2.688-36.779-9.494-64.022-42.944-64.022-82.646 0-47.062 38.272-85.334 85.334-85.334h106.666v97.834l-27.584-27.584c-4.16-4.16-9.621-6.25-15.083-6.25s-10.922 2.091-15.083 6.25c-8.341 8.341-8.341 21.824 0 30.166l63.978 63.979c1.984 1.984 4.331 3.542 6.954 4.63 5.206 2.155 11.094 2.155 16.298 0 2.624-1.088 4.971-2.645 6.954-4.63l63.978-63.979c8.341-8.341 8.341-21.824 0-30.166-4.16-4.16-9.622-6.25-15.082-6.25s-10.923 2.091-15.082 6.25l-27.584 27.584v-97.834h85.334c58.816 0 106.666 47.851 106.666 106.666s-47.851 106.666-106.666 106.666z" />
<glyph unicode="&#xe61f;" d="M286.166 55.211c16.704 16.618 16.704 43.67 0 60.288-16.661 16.747-43.712 16.747-60.331 0.043-16.704-16.704-16.704-43.755 0-60.394 16.661-16.64 43.712-16.661 60.331 0.064zM437.014 223.68c-10.923 0-21.846 4.16-30.166 12.502-83.178 83.178-218.518 83.158-301.717 0-16.683-16.661-43.691-16.64-60.352 0-16.662 16.661-16.662 43.669 0 60.352 116.459 116.438 305.942 116.438 422.378 0 16.661-16.661 16.661-43.669 0-60.33-8.298-8.341-19.221-12.523-30.144-12.523zM165.482 133.184c-10.922 0-21.845 4.16-30.166 12.502-16.662 16.661-16.662 43.67 0 60.33 66.518 66.539 174.805 66.539 241.344 0 16.661-16.661 16.661-43.669 0-60.352-16.661-16.661-43.669-16.661-60.352 0-33.259 33.28-87.403 33.259-120.683 0-8.298-8.32-19.221-12.48-30.144-12.48z" />
<glyph unicode="&#xe620;" d="M256 248c0 51.541-41.792 93.334-93.334 93.334s-93.334-41.792-93.334-93.334c0-24.043 3.392-59.392 37.334-93.334s149.333-112 149.333-112 115.392 78.058 149.333 112 37.334 69.291 37.334 93.334c0 51.541-41.792 93.333-93.334 93.333s-93.334-41.792-93.334-93.333z" />
<glyph unicode="&#xe621;" d="M373.376 212.629l-90.475 52.438 45.611 109.462c1.408 2.859 2.197 6.080 2.197 9.472 0 11.776-9.493 21.334-21.269 21.334-5.312-0.086-9.75-1.771-13.269-4.566-0.704-0.554-1.13-0.896-1.493-1.28l-160-151.467c-4.886-4.63-7.296-11.286-6.528-17.963s4.672-12.608 10.475-16l90.496-52.48-46.144-110.72c-3.904-9.301-0.726-20.053 7.552-25.77 3.691-2.517 7.936-3.755 12.138-3.755 5.291 0 10.582 1.984 14.678 5.846l160 151.51c4.885 4.63 7.296 11.286 6.528 17.962-0.789 6.678-4.693 12.608-10.496 15.978z" />
<glyph unicode="&#xe622;" d="M256 384c-94.101 0-170.667-76.565-170.667-170.666s76.566-170.667 170.667-170.667 170.667 76.565 170.667 170.667-76.565 170.667-170.667 170.667zM149.333 213.333c0 17.75 4.779 34.219 12.458 48.96l143.168-143.168c-14.741-7.68-31.211-12.459-48.96-12.459-58.816 0-106.667 47.851-106.667 106.666zM350.208 164.373l-143.168 143.168c14.742 7.68 31.21 12.459 48.96 12.459 58.816 0 106.666-47.851 106.666-106.667 0-17.75-4.779-34.219-12.459-48.96z" />
<glyph unicode="&#xe623;" d="M416 362.667h-213.333c-27.008 0-60.458-17.216-76.16-39.189l-55.68-77.931c-13.696-19.157-25.216-35.286-25.578-35.819-2.581-3.733-2.602-10.496 0.064-14.166 0.49-0.704 11.84-16.576 25.344-35.498l55.872-78.23c15.68-21.952 49.109-39.168 76.138-39.168h213.334c29.418 0 53.334 23.936 53.334 53.334v213.334c0 29.397-23.914 53.334-53.334 53.334zM367.082 153.749c8.341-8.341 8.341-21.824 0-30.166-4.16-4.16-9.622-6.25-15.082-6.25s-10.923 2.091-15.082 6.25l-48.918 48.918-48.917-48.918c-4.16-4.16-9.621-6.25-15.083-6.25s-10.923 2.091-15.083 6.25c-8.341 8.341-8.341 21.824 0 30.166l48.917 48.918-48.917 48.918c-8.341 8.341-8.341 21.824 0 30.166s21.824 8.341 30.166 0l48.917-48.917 48.918 48.917c8.341 8.341 21.824 8.341 30.166 0s8.341-21.824 0-30.166l-48.918-48.918 48.918-48.918z" />
<glyph unicode="&#xe624;" d="M391.765 327.787c-33.301 33.259-87.466 33.259-120.704 0l-96.726-96.746c-10.090-10.090-15.637-23.467-15.637-37.76 0-14.25 5.568-27.627 15.616-37.717 10.389-10.368 24.064-15.574 37.738-15.574 13.654 0 27.286 5.163 37.696 15.574l45.27 45.248c8.341 8.426 12.502 19.286 12.502 30.166 0 10.923-4.16 21.824-12.502 30.165l-75.435-75.413c-4.118-4.16-10.901-4.16-15.104 0.043-2.709 2.709-3.114 5.866-3.114 7.51 0 1.664 0.405 4.842 3.114 7.552l96.747 96.79c16.598 16.618 43.69 16.618 60.373 0 16.618-16.618 16.618-43.712 0-60.331l-150.87-150.869c-16.619-16.618-43.712-16.618-60.331 0-16.64 16.618-16.64 43.712 0 60.33l2.026 2.048c-9.621 12.8-14.976 28.992-14.976 45.334l-17.216-17.216c-33.28-33.258-33.28-87.424 0-120.661 16.619-16.618 38.486-24.96 60.331-24.96s43.712 8.341 60.331 24.96l150.869 150.87c33.28 33.259 33.28 87.382 0 120.661z" />
<glyph unicode="&#xe625;" d="M377.75 292.416c-8.341 8.341-21.824 8.341-30.166 0s-8.341-21.824 0-30.166l27.584-27.584h-97.834v97.835l27.584-27.584c4.16-4.16 9.622-6.25 15.082-6.25s10.923 2.091 15.082 6.25c8.341 8.341 8.341 21.824 0 30.166l-79.082 79.082-79.082-79.082c-8.341-8.341-8.341-21.824 0-30.166s21.824-8.341 30.166 0l27.584 27.584v-97.835h-97.834l27.584 27.584c8.341 8.341 8.341 21.824 0 30.165s-21.824 8.341-30.166 0l-79.082-79.082 79.082-79.082c4.16-4.16 9.621-6.25 15.083-6.25s10.922 2.091 15.083 6.25c8.341 8.341 8.341 21.824 0 30.166l-27.584 27.584h97.834v-97.834l-27.584 27.584c-8.341 8.341-21.824 8.341-30.166 0s-8.341-21.824 0-30.166l79.082-79.082 79.082 79.082c8.341 8.341 8.341 21.824 0 30.166s-21.824 8.341-30.166 0l-27.584-27.584v97.834h97.834l-27.584-27.584c-8.341-8.341-8.341-21.824 0-30.166 4.16-4.16 9.622-6.25 15.082-6.25s10.923 2.091 15.082 6.25l79.082 79.082-79.082 79.082z" />
<glyph unicode="&#xe626;" d="M451.648 140.843l-126.123 210.219c-16.555 27.584-41.877 43.37-69.526 43.37s-52.971-15.786-69.525-43.328l-126.123-210.262c-16.768-27.925-18.602-57.707-5.014-81.707 13.568-24.022 40.064-37.803 72.661-37.803h256c32.597 0 59.094 13.781 72.661 37.781 13.589 24 11.755 53.781-5.014 81.728zM256 94.955c-18.219 0-33.066 14.827-33.066 33.046 0 18.24 14.827 33.088 33.066 33.088s33.067-14.848 33.067-33.088c0-18.219-14.848-33.046-33.067-33.046zM290.837 253.333c-0.235-0.661-29.888-73.984-29.888-73.984-0.81-2.005-2.774-3.328-4.928-3.328s-4.118 1.322-4.928 3.328l-29.674 73.344c-1.92 4.97-2.752 9.451-2.752 13.973 0 20.587 16.746 37.334 37.333 37.334s37.334-16.747 37.334-37.334c0-4.522-0.832-9.002-2.496-13.333z" />
<glyph unicode="&#xe627;" d="M362.666 277.333c0 29.462-11.947 56.128-31.232 75.413-19.307 19.306-45.974 31.253-75.435 31.253s-56.128-11.947-75.435-31.253c-19.286-19.286-31.232-45.952-31.232-75.413s11.946-56.128 31.232-75.414c19.306-19.307 45.974-31.253 75.435-31.253s56.128 11.947 75.435 31.253c19.286 19.286 31.232 45.952 31.232 75.414zM128 64c0-21.334 48-42.666 128-42.666 75.050 0 128 21.334 128 42.666 0 42.666-50.219 85.334-128 85.334-80 0-128-42.666-128-85.334z" />
<glyph unicode="&#xe628;" d="M256 42.667c82.346 0 149.333 67.008 149.333 149.334s-66.986 149.334-149.398 149.334c-82.304 0-149.269-67.008-149.269-149.334s66.987-149.333 149.333-149.333zM234.667 296.491v-40.49c0-11.797 9.558-21.333 21.333-21.333s21.334 9.536 21.334 21.334v40.49c41.728-8.49 74.666-41.43 83.178-83.158h-40.512c-11.776 0-21.334-9.536-21.334-21.334s9.558-21.334 21.334-21.334h40.512c-8.512-41.728-41.45-74.666-83.178-83.157v40.49c0 11.798-9.558 21.334-21.334 21.334s-21.334-9.536-21.334-21.334v-40.49c-41.728 8.49-74.666 41.43-83.178 83.158h40.512c11.776 0 21.334 9.536 21.334 21.334s-9.558 21.334-21.334 21.334h-40.512c8.512 41.728 41.429 74.666 83.178 83.158z" />
<glyph unicode="&#xe629;" d="M384 384c-47.062 0-85.334-38.293-85.334-85.333v-64h-85.334v21.333h-64c-23.531 0-42.666-19.114-42.666-42.667v-149.333c0-23.552 19.136-42.666 42.666-42.666h213.333c23.531 0 42.666 19.115 42.666 42.666v149.334c0 23.552-19.136 42.667-42.666 42.667h-21.334v42.666c0 23.552 19.136 42.667 42.666 42.667s42.666-19.115 42.666-42.667v-64c0-11.798 9.558-21.334 21.334-21.334s21.334 9.536 21.334 21.334v64c0 47.040-38.272 85.334-85.334 85.334zM256 78.955c-15.339 0-27.733 12.373-27.733 27.712s12.394 27.755 27.733 27.755 27.733-12.416 27.733-27.755-12.394-27.712-27.733-27.712z" />
<glyph unicode="&#xe62a;" d="M362.666 256h-21.334v42.666c0 47.040-38.272 85.334-85.334 85.334s-85.334-38.293-85.334-85.334v-42.666h-21.334c-23.531 0-42.666-19.114-42.666-42.667v-149.334c0-23.552 19.136-42.666 42.666-42.666h213.334c23.531 0 42.666 19.115 42.666 42.666v149.334c0 23.552-19.136 42.667-42.666 42.667zM256 78.955c-15.339 0-27.733 12.373-27.733 27.712s12.394 27.755 27.733 27.755 27.733-12.416 27.733-27.755-12.394-27.712-27.733-27.712zM298.666 234.667h-85.334v64c0 23.552 19.136 42.667 42.666 42.667s42.666-19.115 42.666-42.667v-64z" />
<glyph unicode="&#xe62b;" d="M221.184 61.824c7.446-22.378 21.568-23.168 31.53-1.834l113.258 242.667c9.962 21.376 0.726 30.592-20.63 20.63l-242.688-113.238c-21.355-9.962-20.544-24.086 1.814-31.552l87.53-29.163 29.184-87.51z" />
<glyph unicode="&#xe62c;" d="M451.648 140.843l-126.123 210.219c-16.555 27.584-41.877 43.37-69.526 43.37s-52.971-15.786-69.525-43.328l-126.123-210.262c-16.768-27.925-18.602-57.707-5.014-81.707 13.568-24.022 40.064-37.803 72.661-37.803h256c32.597 0 59.094 13.781 72.661 37.781 13.589 24 11.755 53.781-5.014 81.728zM256 289.088c18.219-0.043 33.046-14.891 33.088-33.067 0-18.197-14.827-33.046-33.067-33.088-18.219 0.043-33.066 14.891-33.109 33.067 0 18.24 14.848 33.088 33.088 33.088zM292.053 108.587c-0.683-0.789-16.96-19.584-44.118-19.584-1.088 0-2.197 0.022-3.286 0.086-10.838 0.64-19.798 5.44-25.28 13.526-6.72 9.92-7.637 23.744-2.582 38.933l8.661 26.048c4.8 14.57 0.214 16.896-2.262 18.134-0.661 0.341-1.707 0.534-2.987 0.534-5.355 0-12.736-3.158-15.104-4.394-2.219-1.152-5.013-0.555-6.635 1.43-1.558 2.026-1.514 4.842 0.149 6.784 0.704 0.832 18.496 21.226 47.424 19.498 10.773-0.618 19.734-5.397 25.216-13.462 6.741-9.92 7.68-23.765 2.646-38.998l-8.661-26.048c-4.842-14.55-0.214-16.896 2.262-18.134 0.426-0.214 1.322-0.49 2.923-0.49 5.418 0 12.8 3.158 15.19 4.373 2.262 1.195 5.014 0.555 6.613-1.45 1.536-2.026 1.493-4.842-0.171-6.784z" />
<glyph unicode="&#xe62d;" d="M448 170.667h-128c-11.798 0-21.334 9.536-21.334 21.334s9.536 21.334 21.334 21.334h128c11.798 0 21.334-9.536 21.334-21.334s-9.536-21.334-21.334-21.334zM298.666 277.333c0-29.462-11.947-56.128-31.232-75.414-19.306-19.307-45.974-31.253-75.435-31.253s-56.128 11.947-75.434 31.253c-19.285 19.286-31.232 45.952-31.232 75.414s11.947 56.128 31.232 75.413c19.307 19.306 45.973 31.253 75.434 31.253s56.128-11.947 75.435-31.253c19.286-19.286 31.232-45.952 31.232-75.413zM192 149.333c-80 0-128-42.666-128-85.334 0-21.334 48-42.666 128-42.666 75.050 0 128 21.334 128 42.666s-50.219 85.334-128 85.334z" />
<glyph unicode="&#xe62e;" d="M192 170.667c29.462 0 56.128 11.947 75.435 31.253 19.286 19.286 31.232 45.952 31.232 75.414s-11.947 56.128-31.232 75.413c-19.306 19.306-45.974 31.253-75.435 31.253s-56.128-11.947-75.434-31.253c-19.285-19.286-31.232-45.952-31.232-75.413s11.947-56.128 31.232-75.414c19.307-19.307 45.973-31.253 75.434-31.253zM192 21.333c75.050 0 128 21.334 128 42.666 0 42.666-50.219 85.334-128 85.334-80 0-128-42.666-128-85.334 0-21.334 48-42.666 128-42.666zM448 213.333h-42.666v42.667c0 11.797-9.536 21.334-21.334 21.334s-21.334-9.536-21.334-21.334v-42.667h-42.666c-11.798 0-21.334-9.536-21.334-21.334s9.536-21.334 21.334-21.334h42.666v-42.666c0-11.798 9.536-21.334 21.334-21.334s21.334 9.536 21.334 21.334v42.666h42.666c11.798 0 21.334 9.536 21.334 21.334s-9.536 21.334-21.334 21.334z" />
<glyph unicode="&#xe62f;" d="M170.667 341.333c-23.552 0-42.667-19.115-42.667-42.667v-170.666c0-23.552 19.114-42.666 42.666-42.666s42.666 19.115 42.666 42.666v170.667c0 23.552-19.114 42.666-42.666 42.666zM320 341.333c-23.552 0-42.666-19.115-42.666-42.667v-170.666c0-23.552 19.115-42.666 42.666-42.666s42.666 19.115 42.666 42.666v170.667c0 23.552-19.115 42.666-42.666 42.666z" />
<glyph unicode="&#xe630;" d="M256 170.667c29.462 0 56.128 11.947 75.435 31.253 19.286 19.286 31.232 45.952 31.232 75.414s-11.947 56.128-31.232 75.413c-19.307 19.306-45.974 31.253-75.435 31.253s-56.128-11.947-75.435-31.253c-19.286-19.286-31.232-45.952-31.232-75.413s11.946-56.128 31.232-75.414c19.306-19.307 45.974-31.253 75.435-31.253zM426.666 149.333c14.72 0 28.053 5.952 37.718 15.594s15.616 22.976 15.616 37.738c0 14.72-5.952 28.054-15.616 37.718s-22.998 15.616-37.717 15.616c-14.741 0-28.075-5.952-37.738-15.616-9.642-9.664-15.594-22.998-15.594-37.718 0-14.741 5.952-28.075 15.594-37.738s22.998-15.594 37.738-15.594zM426.666 136.747c-28.394 0-49.75-8.661-62.229-20.651-23.786 19.563-61.397 33.238-108.438 33.238-48.341 0-85.226-13.824-108.63-33.365-12.714 12.053-34.304 20.779-62.037 20.779-46.678 0-74.666-23.253-74.666-46.55 0-11.627 27.989-23.296 74.666-23.296 12.886 0 24.448 1.088 34.624 2.837-0.213-1.942-0.853-3.84-0.853-5.76 0-21.334 51.328-42.666 136.896-42.666 80.256 0 136.896 21.334 136.896 42.666 0 1.813-0.235 3.627-0.426 5.44 9.877-1.558 21.226-2.517 34.197-2.517 43.755 0 74.666 11.669 74.666 23.296 0 23.296-29.291 46.55-74.666 46.55zM85.334 149.333c14.72 0 28.053 5.952 37.718 15.616s15.616 22.998 15.616 37.717c0 14.699-5.952 28.032-15.616 37.718-9.664 9.643-22.998 15.616-37.718 15.616-14.742 0-28.075-5.973-37.739-15.616-9.642-9.685-15.594-23.018-15.594-37.718 0-14.72 5.952-28.053 15.594-37.717 9.664-9.664 22.998-15.616 37.739-15.616z" />
<glyph unicode="&#xe631;" d="M247.766 171.093l104.704-105.002c8.32-8.341 21.12-7.68 27.435 2.262 18.774 29.738 29.717 64.938 29.717 102.72 0 45.462-15.808 87.168-42.070 120.128l-119.786-120.106zM192 162.219v156.906c-72.341-10.389-128-72.64-128-148.032 0-82.688 66.858-149.76 149.333-149.76 33.536 0 64.384 11.221 89.302 29.93l-110.635 110.954zM348.394 336.789c8.32 8.341 7.786 21.312-1.899 28.011-26.731 18.517-57.493 31.552-90.688 37.654-11.606 2.133-21.142-6.656-21.142-18.454v-161.28l113.728 114.070z" />
<glyph unicode="&#xe632;" d="M101.334 137.365c7.872-6.272 17.302-9.365 26.624-9.365 12.544 0 24.918 5.504 33.344 16.043l59.499 74.368 52.267-39.211c18.432-13.824 44.544-10.496 58.923 7.51l85.334 106.666c14.72 18.368 11.733 45.248-6.656 59.968-18.411 14.699-45.248 11.755-59.99-6.656l-59.498-74.368-52.245 39.146c-18.432 13.824-44.523 10.538-58.923-7.466l-85.334-106.666c-14.72-18.411-11.712-45.248 6.656-59.968zM106.666 21.333h298.666c11.798 0 21.334 9.536 21.334 21.334s-9.536 21.334-21.334 21.334h-298.666c-11.797 0-21.334-9.536-21.334-21.334s9.536-21.334 21.334-21.334z" />
<glyph unicode="&#xe633;" d="M298.666 384c0 23.574-19.115 42.667-42.666 42.667s-42.666-19.094-42.666-42.667v-256h85.334v256zM405.334 298.667c0 23.573-19.115 42.667-42.666 42.667s-42.666-19.094-42.666-42.667v-170.666h85.334v170.667zM192 234.667c0 23.573-19.114 42.667-42.666 42.667s-42.666-19.094-42.666-42.667v-106.667h85.334v106.667zM405.334 64h-298.666c-11.797 0-21.334-9.536-21.334-21.334s9.536-21.334 21.334-21.334h298.666c11.798 0 21.334 9.536 21.334 21.334s-9.536 21.334-21.334 21.334z" />
<glyph unicode="&#xe634;" d="M426.666 341.333c0 12.522-5.483 24.896-16 33.322-18.411 14.72-45.248 11.755-59.99-6.656l-59.498-74.368-52.245 39.168c-18.432 13.824-44.523 10.517-58.923-7.488l-85.334-106.666c-6.272-7.851-9.344-17.301-9.344-26.645v-64h341.334v213.334zM426.666 64h-341.334c-11.776 0-21.334-9.536-21.334-21.334s9.558-21.334 21.334-21.334h341.334c11.776 0 21.334 9.536 21.334 21.334s-9.558 21.334-21.334 21.334z" />
<glyph unicode="&#xe635;" d="M480.534 316.821c-3.413 2.112-7.296 3.179-11.2 3.179-3.264 0-6.528-0.747-9.536-2.24l-54.464-27.243v8.149c0 35.285-28.714 64-64 64h-234.667c-35.285 0-64-28.715-64-64v-170.667c0-35.286 28.715-64 64-64h234.667c35.286 0 64 28.714 64 64v8.149l54.464-27.221c3.008-1.514 6.272-2.262 9.536-2.262 3.904 0 7.786 1.067 11.2 3.178 6.293 3.904 10.134 10.752 10.134 18.154v170.667c0 7.402-3.84 14.25-10.134 18.155zM149.333 181.333c-17.685 0-32 14.315-32 32s14.315 32 32 32 32-14.315 32-32-14.315-32-32-32z" />
<glyph unicode="&#xe636;" d="M352 234.667c41.173 0 74.666 33.494 74.666 74.667s-33.493 74.666-74.666 74.666-74.666-33.493-74.666-74.666v-32h-42.666v32c0 41.173-33.493 74.666-74.666 74.666s-74.666-33.493-74.666-74.666 33.493-74.667 74.666-74.667h32v-42.667h-32c-41.173 0-74.666-33.493-74.666-74.666s33.493-74.666 74.666-74.666 74.666 33.493 74.666 74.666v32h42.666v-32c0-41.173 33.493-74.666 74.666-74.666s74.666 33.493 74.666 74.666-33.493 74.666-74.666 74.666h-32v42.667h32zM320 309.333c0 17.664 14.358 32 32 32s32-14.336 32-32c0-17.622-14.358-32-32-32h-32v32zM192 117.333c0-17.622-14.357-32-32-32s-32 14.378-32 32c0 17.664 14.357 32 32 32h32v-32zM192 277.333h-32c-17.642 0-32 14.378-32 32 0 17.664 14.357 32 32 32s32-14.336 32-32v-32zM277.334 192h-42.666v42.667h42.666v-42.667zM352 149.333c17.642 0 32-14.336 32-32 0-17.622-14.358-32-32-32s-32 14.378-32 32v32h32z" />
<glyph unicode="&#xe637;" d="M350.57 285.952c-24.598 0-47.723-9.579-64.768-26.582l-29.781-28.587-29.334 28.16c-17.387 17.429-40.554 27.008-65.173 27.008s-47.766-9.622-65.13-27.008c-17.43-17.408-27.029-40.534-27.029-65.174 0-24.576 9.579-47.744 27.008-65.13 17.365-17.408 40.512-27.008 65.152-27.008 24.597 0 47.766 9.579 64.768 26.624l29.76 28.544 29.355-28.16c17.387-17.408 40.555-27.008 65.173-27.008s47.744 9.579 65.13 27.008c17.43 17.365 27.029 40.534 27.029 65.173s-9.579 47.744-27.008 65.174c-17.43 17.386-40.555 26.965-65.152 26.965zM188.95 166.379c-14.656-14.678-40.192-14.678-54.87 0-7.338 7.339-11.37 17.088-11.37 27.413 0 10.368 4.032 20.075 11.413 27.456 7.296 7.339 17.046 11.37 27.392 11.37s20.096-4.032 27.84-11.755l28.181-27.094-28.587-27.392zM377.984 166.379c-14.656-14.699-39.808-15.040-55.253 0.384l-28.182 27.094 28.565 27.413c14.678 14.678 40.234 14.678 54.891 0.043 7.339-7.382 11.37-17.088 11.37-27.456s-4.053-20.139-11.392-27.478z" />
<glyph unicode="&#xe638;" d="M234.667 42.667h-85.333c-11.798 0-21.334-9.536-21.334-21.334s9.536-21.334 21.334-21.334h213.334c11.798 0 21.334 9.536 21.334 21.334s-9.536 21.334-21.334 21.334h-85.334v26.24c34.986 7.914 67.115 25.344 93.077 51.328 36.267 36.267 56.256 84.48 56.256 135.766 0 44.096-14.762 85.952-41.984 119.872l14.4 14.358c8.341 8.341 8.341 21.824 0.022 30.186-8.341 8.341-21.846 8.32-30.187 0.022l-43.776-43.712 15.104-15.104c28.202-28.202 43.755-65.728 43.755-105.621s-15.552-77.376-43.755-105.579-65.685-43.755-105.579-43.755-77.376 15.552-105.579 43.755c-8.341 8.341-21.824 8.341-30.166 0-8.341-8.32-8.341-21.824 0-30.166 36.245-36.267 84.459-56.256 135.744-56.256v-21.334zM234.667 384c35.35 0 67.35-14.336 90.518-37.482 23.147-23.168 37.483-55.168 37.483-90.518 0-35.328-14.336-67.328-37.483-90.496-23.168-23.168-55.168-37.504-90.517-37.504-35.37 0-67.35 14.336-90.496 37.483-23.147 23.168-37.462 55.168-37.462 90.518s14.314 67.35 37.462 90.518c23.147 23.146 55.125 37.482 90.496 37.482z" />
<glyph unicode="&#xe639;" d="M465.514 204.16c-1.771 2.538-43.99 62.805-102.25 104-30.208 21.397-68.31 33.173-107.264 33.173-38.934 0-77.034-11.776-107.306-33.173-58.261-41.195-100.438-101.462-102.208-104-5.078-7.317-5.078-17.024 0-24.341 1.77-2.538 43.947-62.805 102.208-104 30.272-21.376 68.374-33.152 107.306-33.152 38.954 0 77.056 11.776 107.264 33.173 58.262 41.195 100.48 101.462 102.25 104 5.099 7.296 5.099 17.024 0 24.32zM256 117.333c-41.258 0-74.666 33.493-74.666 74.666 0 41.259 33.408 74.667 74.666 74.667 41.173 0 74.666-33.408 74.666-74.667 0-41.173-33.493-74.666-74.666-74.666zM298.666 192c0-23.51-19.157-42.666-42.666-42.666-23.573 0-42.666 19.158-42.666 42.666 0 23.574 19.094 42.667 42.666 42.667 23.51 0 42.666-19.094 42.666-42.667z" />
<glyph unicode="&#xe63a;" d="M200.256 94.976l7.915-31.616c2.838-11.37 14.762-20.694 26.496-20.694h21.333c11.733 0 23.659 9.322 26.496 20.693l7.914 31.616c2.837 11.37 14.4 18.048 25.664 14.805l31.296-8.96c11.286-3.221 25.344 2.432 31.19 12.608l10.666 18.496c5.846 10.176 3.776 25.152-4.672 33.322l-23.424 22.635c-8.448 8.171-8.448 21.504 0.022 29.654l23.382 22.635c8.448 8.149 10.538 23.125 4.694 33.302l-10.688 18.496c-5.866 10.176-19.904 15.83-31.168 12.608l-31.296-8.96c-11.286-3.221-22.827 3.434-25.685 14.805l-7.894 31.574c-2.837 11.349-14.762 20.672-26.496 20.672h-21.333c-11.733 0-23.659-9.323-26.496-20.694l-7.893-31.573c-2.858-11.37-14.4-18.048-25.685-14.827l-31.296 8.96c-11.286 3.242-25.344-2.432-31.189-12.587l-10.666-18.496c-5.846-10.176-3.776-25.152 4.694-33.322l23.381-22.592c8.427-8.171 8.427-21.504 0-29.675l-23.424-22.635c-8.427-8.171-10.538-23.147-4.672-33.322l10.688-18.496c5.846-10.176 19.904-15.829 31.189-12.608l31.296 8.96c11.264 3.264 22.827-3.413 25.664-14.784zM245.333 245.333c23.552 0 42.667-19.094 42.667-42.667 0-23.552-19.115-42.666-42.666-42.666s-42.666 19.115-42.666 42.666c0 23.574 19.114 42.667 42.666 42.667z" />
<glyph unicode="&#xe63b;" d="M405.334 341.333h-33.834l-21.334 21.333c-12.352 12.352-34.026 21.334-51.498 21.334h-85.334c-17.472 0-39.147-8.982-51.499-21.334l-21.333-21.333h-33.834c-35.285 0-64-28.715-64-64v-170.667c0-35.286 28.715-64 64-64h298.666c35.286 0 64 28.714 64 64v170.667c0 35.286-28.714 64-64 64zM256 128c-41.238 0-74.666 33.45-74.666 74.666 0 41.259 33.429 74.666 74.666 74.666s74.666-33.408 74.666-74.666c0-41.216-33.43-74.666-74.666-74.666zM384 228.288c-15.339 0-27.733 12.374-27.733 27.712s12.394 27.754 27.733 27.754 27.733-12.416 27.733-27.754-12.394-27.712-27.733-27.712z" />
<glyph unicode="&#xe63c;" d="M447.723 128c0 2.24-0.086 4.502-0.832 6.741l-42.666 128c-2.901 8.726-11.029 14.592-20.224 14.592h-85.334v-42.667h69.952l35.563-106.667h-296.363l35.563 106.667h69.952v42.666h-85.334c-9.195 0-17.323-5.866-20.224-14.592l-42.666-128c-0.746-2.24-0.832-4.502-0.832-6.741-0.278 0-0.278-106.666-0.278-106.666 0-11.798 9.536-21.334 21.334-21.334h341.334c11.798 0 21.334 9.536 21.334 21.334 0 0 0 106.666-0.277 106.666zM341.334 300.715c5.526 0 11.050 2.026 15.082 6.038 8.32 8.32 8.32 21.846 0 30.165l-100.416 100.416-100.416-100.416c-8.32-8.32-8.32-21.846 0-30.165 4.032-4.032 9.558-6.038 15.083-6.038s11.050 2.005 15.083 6.038l48.917 48.917v-142.336c0-11.776 9.558-21.334 21.333-21.334s21.334 9.558 21.334 21.334v142.336l48.918-48.918c4.032-4.032 9.558-6.038 15.082-6.038z" />
<glyph unicode="&#xe63d;" d="M440 351.68c-21.334 32.469-62.187 35.626-93.803 17.578l-3.968-2.282c-0.534 0.042-1.067 0.064-1.622 0.064-22.23 0-42.88-10.902-55.552-29.206-0.256-0.32-0.49-0.619-0.726-0.96-9.173-13.76-15.424-26.368-21.44-38.592-5.44-11.008-10.666-21.546-17.578-31.637-6.934 10.133-12.16 20.693-17.621 31.702-6.037 12.181-12.267 24.789-21.418 38.528-0.214 0.341-0.448 0.64-0.704 0.939-12.65 18.325-33.322 29.226-55.531 29.226-37.269 0-67.563-30.293-67.563-67.542 0-37.269 30.314-67.584 67.563-67.584 16.534 0 32.32 6.123 44.523 16.875l13.91-25.558c-34.582-40.022-63.552-86.486-64.406-87.914-26.368-36.31 15.040-94.293 16.832-96.726 2.006-2.795 5.226-4.416 8.64-4.416 4.352 0.256 7.616 2.346 9.365 5.568l66.389 121.963 66.411-121.962c1.75-3.2 5.014-5.312 8.683-5.546 3.712-0.406 7.168 1.408 9.322 4.394 1.771 2.432 43.178 60.416 17.259 96.085l-6.89 11.115c-22.954 37.034-25.322 40.875-57.92 77.526l13.888 25.494c12.202-10.752 28.010-16.875 44.544-16.875 37.248 0 67.563 30.314 67.563 67.584 0 13.526-4.075 26.582-11.669 37.718 10.070 5.76 21.269 2.624 31.062-2.026 9.942-4.075 19.136 8.043 12.459 16.469zM149.333 277.333c-11.776 0-21.334 9.536-21.334 21.333s9.557 21.334 21.334 21.334 21.333-9.536 21.333-21.334-9.558-21.333-21.334-21.333zM245.333 204.907c-5.91 0-10.667 4.8-10.667 10.666 0 5.91 4.757 10.667 10.666 10.667s10.666-4.758 10.666-10.667c0-5.866-4.757-10.666-10.666-10.666zM341.334 277.333c-11.776 0-21.334 9.536-21.334 21.333s9.558 21.334 21.334 21.334 21.334-9.536 21.334-21.334-9.558-21.333-21.334-21.333z" />
<glyph unicode="&#xe63e;" d="M274.603 187.925h109.397v109.376c-0.171 24.214-14.315 30.038-31.424 12.906l-24.618-24.704c-21.654 16.96-48.149 26.24-76.075 26.24-33.066 0-64.192-12.885-87.552-36.288-23.446-23.296-36.331-54.464-36.331-87.531 0-33.13 12.886-64.256 36.288-87.616 23.403-23.402 54.507-36.31 87.594-36.31 33.067 0 64.192 12.906 87.594 36.33 6.315 6.336 11.904 13.248 16.64 20.587 7.402 11.541 4.053 26.88-7.466 34.24-11.498 7.382-26.837 4.032-34.219-7.466-2.837-4.416-6.229-8.534-9.984-12.373-14.058-14.038-32.726-21.76-52.565-21.76s-38.507 7.702-52.565 21.76c-14.016 14.038-21.76 32.704-21.76 52.587 0 19.84 7.722 38.507 21.76 52.502 14.059 14.037 32.726 21.781 52.565 21.781 14.678 0 28.714-4.288 40.726-12.203l-30.89-30.955c-17.131-17.11-11.306-31.104 12.885-31.104z" />
<glyph unicode="&#xe63f;" d="M356.885 378.219c-8.298 8.341-21.781 8.384-30.166 0.085-2.219-2.219-3.755-4.843-4.8-7.574-17.75-37.034-37.291-57.92-61.952-70.25-27.669-13.654-59.435-23.146-110.635-23.146-2.774 0-5.547-0.534-8.149-1.622-5.226-2.176-9.365-6.336-11.541-11.541-2.154-5.206-2.154-11.094 0-16.299 1.088-2.624 2.645-4.992 4.63-6.954l69.184-69.184-96.79-129.067 129.066 96.789 69.162-69.163c1.962-2.005 4.33-3.541 6.954-4.63 2.603-1.088 5.376-1.664 8.149-1.664s5.546 0.576 8.149 1.664c5.226 2.176 9.387 6.293 11.541 11.541 1.088 2.582 1.642 5.376 1.642 8.128 0 51.2 9.472 82.966 23.104 110.208 12.31 24.661 33.195 44.203 70.25 61.952 2.752 1.045 5.354 2.582 7.552 4.8 8.298 8.384 8.256 21.867-0.086 30.166l-85.269 85.76z" />
<glyph unicode="&#xe640;" d="M181.333 234.667c0-15.616 3.542-30.379 9.578-43.755l-84.246-84.245c0 0 0-14.336 0-32s19.115-32 42.666-32h42.666v42.666h42.666v42.666c0 0 49.685 0 53.334 0 58.923 0 106.666 47.744 106.666 106.667s-47.744 106.666-106.666 106.666-106.666-47.744-106.666-106.666zM288 192c-23.552 0-42.666 19.115-42.666 42.667 0 23.573 19.115 42.709 42.666 42.709 23.574 0 42.666-19.114 42.666-42.709 0-23.552-19.094-42.667-42.666-42.667z" />
<glyph unicode="&#xe641;" d="M295.232 95.467c-0.128-0.043-11.925-3.968-22.166-3.968-5.654 0-7.936 1.173-8.661 1.685-3.584 2.496-10.24 7.168 1.152 29.866l21.334 42.538c12.651 25.259 14.528 49.685 5.226 68.8-7.594 15.637-22.166 26.368-40.96 30.208-6.762 1.387-13.632 2.070-20.438 2.070-39.446 0-66.006-23.040-67.114-24.022-3.819-3.37-4.714-8.96-2.176-13.355 2.56-4.394 7.829-6.4 12.694-4.736 0.107 0.042 11.925 3.989 22.166 3.989 5.611 0 7.872-1.173 8.576-1.664 3.606-2.518 10.282-7.254-1.088-29.91l-21.333-42.56c-12.672-25.28-14.528-49.707-5.226-68.8 7.595-15.637 22.144-26.368 40.981-30.208 6.698-1.344 13.568-2.070 20.352-2.070 39.467 0 66.048 23.040 67.157 24.022 3.818 3.349 4.714 8.96 2.176 13.354-2.56 4.373-7.872 6.336-12.651 4.757zM330.666 341.312c0-29.455-23.878-53.333-53.334-53.333s-53.334 23.878-53.334 53.333c0 29.455 23.878 53.334 53.334 53.334s53.334-23.878 53.334-53.334z" />
<glyph unicode="&#xe642;" d="M277.334 96c-52.928 0-96 43.072-96 96 0 11.798-9.536 21.334-21.334 21.334s-21.334-9.536-21.334-21.334c0-76.459 62.208-138.666 138.666-138.666s138.667 62.208 138.667 138.667-62.208 138.667-138.667 138.667c-11.798 0-21.334-9.536-21.334-21.334s9.536-21.333 21.334-21.333c52.928 0 96-43.072 96-96s-43.072-96-96-96zM227.328 384c11.776 0 21.333-9.558 21.333-21.333s-9.558-21.333-21.334-21.333h-69.184l123.754-123.712c8.341-8.341 8.341-21.866 0.022-30.187-4.032-4.010-9.387-6.229-15.104-6.229s-11.072 2.219-15.083 6.208l-123.733 123.776v-69.184c0-11.776-9.558-21.334-21.334-21.334s-21.334 9.558-21.334 21.334v141.994h141.994z" />
<glyph unicode="&#xe643;" d="M356.416 311.381c-4.032 4.010-9.558 6.037-15.082 6.037s-11.050-2.026-15.082-6.037l-48.918-48.918v142.87c0 11.776-9.558 21.333-21.334 21.333s-21.334-9.558-21.334-21.333v-142.87l-48.917 48.918c-4.032 4.010-9.387 6.25-15.083 6.25s-11.050-2.24-15.083-6.25c-8.32-8.32-8.32-21.846 0-30.166l100.416-99.882 100.458 99.925c8.277 8.256 8.277 21.803-0.043 30.123zM447.723 128c0 2.24-0.086 4.502-0.832 6.741l-42.666 128c-2.901 8.726-11.029 14.592-20.224 14.592h-4.672c-2.005-4.011-4.48-7.851-7.829-11.2l-31.616-31.466h28.757l35.563-106.667h-296.384l35.563 106.667h28.757l-31.637 31.467c-3.35 3.349-5.845 7.189-7.829 11.2h-4.672c-9.195 0-17.323-5.866-20.224-14.592l-42.666-128c-0.746-2.24-0.832-4.502-0.832-6.741-0.278 0-0.278-106.666-0.278-106.666 0-11.798 9.536-21.334 21.334-21.334h341.334c11.798 0 21.334 9.536 21.334 21.334 0 0 0 106.666-0.277 106.666z" />
<glyph unicode="&#xe644;" d="M277.334 384c-82.326 0-149.333-67.008-149.333-149.333 0-16.278 2.709-31.894 7.552-46.571l-26.88-26.923-21.504-22.293c-11.99-11.882-19.008-28.693-19.008-46.613 0-36.843 29.952-66.795 66.774-66.795 16.149 0 32.085 5.93 44.886 16.726l1.365 1.173 1.302 1.301 48.256 48.192c14.678-4.822 30.314-7.531 46.592-7.531 82.326 0 149.333 67.008 149.333 149.334s-67.008 149.333-149.333 149.333zM277.334 128c-58.816 0-106.666 47.851-106.666 106.667s47.851 106.666 106.666 106.666 106.666-47.851 106.666-106.666-47.851-106.667-106.666-106.667zM277.334 320c-47.040 0-85.334-38.272-85.334-85.333s38.293-85.334 85.334-85.334 85.334 38.272 85.334 85.334-38.293 85.334-85.334 85.334zM277.334 170.667c-35.328 0-64 28.672-64 64s28.672 64 64 64 64-28.672 64-64-28.672-64-64-64z" />
<glyph unicode="&#xe645;" d="M277.334 234.667h-106.666c-5.888 0-10.666-4.779-10.666-10.667s4.779-10.667 10.666-10.667h106.666c5.888 0 10.666 4.779 10.666 10.667s-4.779 10.666-10.666 10.666zM413.462 128.939l-20.245 21.034-27.435 27.456c4.842 14.678 7.552 30.293 7.552 46.571 0 82.325-66.987 149.334-149.333 149.334s-149.333-67.008-149.333-149.334 66.987-149.334 149.333-149.334c16.278 0 31.915 2.709 46.592 7.552l49.536-49.493 1.387-1.173c12.822-10.794 28.757-16.726 44.885-16.726 36.822 0 66.774 29.952 66.774 66.794 0 17.92-6.998 34.731-19.712 47.317zM117.334 224c0 58.816 47.85 106.666 106.666 106.666s106.666-47.851 106.666-106.666-47.851-106.666-106.666-106.666-106.666 47.851-106.666 106.666z" />
<glyph unicode="&#xe646;" d="M277.334 234.667h-42.666v42.667c0 5.888-4.779 10.666-10.666 10.666s-10.666-4.779-10.666-10.666v-42.667h-42.666c-5.888 0-10.666-4.779-10.666-10.666s4.779-10.667 10.666-10.667h42.666v-42.666c0-5.888 4.779-10.666 10.666-10.666s10.666 4.779 10.666 10.666v42.666h42.666c5.888 0 10.666 4.779 10.666 10.667s-4.779 10.666-10.666 10.666zM393.216 149.973l-27.413 27.456c4.842 14.678 7.552 30.293 7.552 46.571 0 82.325-67.008 149.334-149.333 149.334s-149.333-67.008-149.333-149.334 67.008-149.334 149.333-149.334c16.278 0 31.915 2.709 46.592 7.552l49.558-49.493 1.365-1.173c12.822-10.794 28.757-16.726 44.885-16.726 36.822 0 66.774 29.952 66.774 66.794 0 17.92-6.998 34.731-19.712 47.317l-20.267 21.034zM117.334 224c0 58.816 47.85 106.666 106.666 106.666s106.666-47.851 106.666-106.666-47.851-106.666-106.666-106.666-106.666 47.851-106.666 106.666z" />
<glyph unicode="&#xe647;" d="M85.334 85.333c-11.776 0-21.334 9.558-21.334 21.334v136.15l-11.797-5.888c-10.56-5.291-23.36-0.982-28.63 9.536-5.27 10.538-0.982 23.339 9.557 28.63l42.666 21.333c6.614 3.307 14.464 2.966 20.757-0.938 6.272-3.904 10.112-10.752 10.112-18.154v-170.667c0-11.776-9.558-21.334-21.334-21.334zM277.334 85.333h-106.666c-8.619 0-16.405 5.205-19.712 13.163-3.306 7.978-1.472 17.152 4.63 23.253l85.334 85.334c5.418 5.418 8.405 12.608 8.405 20.267 0 7.637-2.987 14.827-8.405 20.245-10.838 10.838-29.654 10.838-40.534-0.022-5.398-5.376-8.384-12.565-8.384-20.224 0-11.776-9.558-21.334-21.334-21.334s-21.334 9.558-21.334 21.334c0 19.072 7.424 36.97 20.906 50.432 26.987 26.944 73.899 26.944 100.842-0.021 13.483-13.462 20.885-31.382 20.885-50.411 0-19.051-7.424-36.971-20.885-50.432l-48.917-48.918h55.168c11.776 0 21.334-9.558 21.334-21.334s-9.558-21.334-21.334-21.334zM447.040 205.291c7.211 9.75 11.627 21.675 11.627 34.71 0 32.363-26.325 58.667-58.666 58.667-21.995 0-41.942-12.139-52.053-31.659-5.418-10.454-1.344-23.339 9.13-28.758 10.454-5.418 23.339-1.322 28.757 9.131 2.731 5.312 8.171 8.619 14.166 8.619 8.832 0 16-7.168 16-16s-7.168-16-16-16c-11.776 0-21.334-9.558-21.334-21.334s9.558-21.334 21.334-21.334c14.699 0 26.666-11.968 26.666-26.666s-11.968-26.666-26.666-26.666-26.666 11.968-26.666 26.666c0 11.776-9.558 21.334-21.334 21.334s-21.334-9.558-21.334-21.334c0-38.23 31.104-69.334 69.334-69.334s69.334 31.104 69.334 69.334c0 20.032-8.661 37.952-22.293 50.624z" />
<glyph unicode="&#xe648;" d="M232.427 116.203l-85.333 170.667c-7.232 14.464-30.933 14.464-38.166 0l-85.334-170.667c-5.27-10.538-1.003-23.36 9.536-28.63 10.56-5.291 23.36-0.981 28.63 9.536l15.424 30.89h101.632l15.446-30.87c3.733-7.488 11.264-11.798 19.094-11.798 3.2 0 6.464 0.726 9.514 2.24 10.538 5.291 14.827 18.091 9.558 28.63zM98.517 170.667l29.483 58.966 29.483-58.966h-58.965zM469.334 85.333h-128c-8.086 0-15.466 4.565-19.094 11.798s-2.816 15.872 2.026 22.336l102.4 136.534h-85.334c-11.776 0-21.334 9.558-21.334 21.333s9.558 21.334 21.334 21.334h128c8.086 0 15.466-4.566 19.094-11.798s2.816-15.872-2.026-22.336l-102.4-136.534h85.334c11.776 0 21.334-9.558 21.334-21.334s-9.558-21.334-21.334-21.334zM298.666 170.667h-42.666c-11.776 0-21.334 9.558-21.334 21.334s9.558 21.334 21.334 21.334h42.666c11.776 0 21.334-9.558 21.334-21.334s-9.558-21.334-21.334-21.334z" />
<glyph unicode="&#xe649;" d="M341.334 64h-170.667c-35.285 0-64 28.714-64 64v170.667c0 35.285 28.715 64 64 64h106.667c11.798 0 21.334-9.558 21.334-21.333s-9.536-21.334-21.334-21.334h-106.666c-11.776 0-21.334-9.578-21.334-21.333v-170.667c0-11.755 9.558-21.334 21.334-21.334h170.667c11.776 0 21.334 9.579 21.334 21.334v64c0 11.776 9.536 21.334 21.334 21.334s21.334-9.558 21.334-21.334v-64c0-35.286-28.714-64-64-64zM280.875 152.896c-7.466 0-14.699 2.966-20.075 8.341l-56.917 56.896c-11.094 11.115-11.094 29.12 0 40.214 11.114 11.114 29.12 11.114 40.256 0l30.208-30.23 74.134 116.374c7.616 13.738 24.96 18.709 38.699 11.072 13.717-7.638 18.666-24.96 11.050-38.678l-92.459-149.334c-4.33-7.808-12.075-13.12-20.906-14.358-1.365-0.214-2.646-0.298-3.99-0.298z" />
<glyph unicode="&#xe64a;" d="M405.334 337.408v3.926c0 35.349-28.651 64-64 64s-64-28.651-64-64h-42.666c0 35.349-28.65 64-64 64s-64-28.651-64-64v-3.926c-24.768-8.853-42.666-32.298-42.666-60.074v-192c0-35.286 28.715-64 64-64h256c35.286 0 64 28.714 64 64v192c0 27.776-17.899 51.221-42.666 60.074zM320 341.333c0 11.776 9.536 21.333 21.334 21.333s21.334-9.558 21.334-21.333v-42.667c0-11.776-9.536-21.333-21.334-21.333s-21.334 9.558-21.334 21.333v42.667zM149.333 341.333c0 11.776 9.536 21.333 21.333 21.333s21.334-9.558 21.334-21.333v-42.667c0-11.776-9.536-21.333-21.334-21.333s-21.334 9.558-21.334 21.333v42.667zM405.334 85.333c0-11.755-9.558-21.334-21.334-21.334h-256c-11.776 0-21.334 9.579-21.334 21.334v128h298.666v-128z" />
<glyph unicode="&#xe64b;" d="M256 426.667c-106.048 0-192-85.952-192-192s85.952-192 192-192 192 85.952 192 192-85.952 192-192 192zM298.666 384c0-21.333-10.666-42.666-32-42.666s-32-21.334-32-42.667 0-64 0-64 21.334 0 21.334 64c0 11.798 9.536 21.334 21.334 21.334s21.334-9.536 21.334-21.334v-64c-11.776 0-21.334-9.558-21.334-21.334s9.558-21.334 21.334-21.334c11.798 0 21.334 9.558 21.334 21.334h21.334v42.667l21.334-21.334-21.334-21.334c0-64 0-64-42.666-85.334 0 21.334-21.334 21.334-64 21.334v42.666l-42.666 42.667v42.667c-21.334 0-21.334-21.334-21.334-21.334l-62.954 62.955c2.347 4.096 4.8 8.149 7.466 12.032l11.157 14.464c31.317 36.608 77.739 59.882 129.664 59.882 14.741 0 28.992-2.091 42.666-5.589v-15.744z" />
<glyph unicode="&#xe64c;" d="M401.728 382.741c-2.283 2.026-5.184 2.966-8.406 2.582l-234.667-26.666c-5.312-0.662-9.322-5.206-9.322-10.582v-220.075c-35.285 0-64-23.936-64-53.334s28.715-53.334 64-53.334 64 23.936 64 53.334v162.326l128 13.333v-79.659c-35.286 0-64-23.936-64-53.334s28.714-53.334 64-53.334 64 23.936 64 53.334v257.408c0 3.072-1.322 5.973-3.606 8z" />
<glyph unicode="&#xe64d;" d="M174.315 85.333c-10.923 0-21.824 4.16-30.166 12.502l-94.165 94.166 94.165 94.166c16.661 16.662 43.712 16.662 60.331 0 16.661-16.661 16.661-43.669 0-60.33l-33.814-33.835 33.814-33.834c16.661-16.661 16.661-43.67 0-60.33-8.32-8.341-19.243-12.502-30.166-12.502zM337.685 85.333c-10.923 0-21.846 4.16-30.166 12.502-16.661 16.661-16.661 43.67 0 60.33l33.813 33.834-33.813 33.835c-16.661 16.661-16.661 43.669 0 60.331 16.618 16.661 43.669 16.661 60.331 0l94.166-94.166-94.166-94.166c-8.32-8.341-19.243-12.502-30.166-12.502z" />
<glyph unicode="&#xe64e;" d="M416 203.243c0 41.558-13.184 72.469-44.075 103.339-8.341 8.32-21.824 8.32-30.166 0-8.341-8.341-8.341-21.846 0-30.186 23.019-22.998 31.574-42.816 31.574-73.152 0-31.339-12.202-60.8-34.368-82.944-21.418-21.397-44.331-32.043-73.13-33.984l26.582 26.603c8.341 8.341 8.341 21.824 0 30.166s-21.824 8.341-30.166 0l-79.082-79.082 79.082-79.082c4.16-4.16 9.622-6.25 15.082-6.25s10.923 2.091 15.082 6.25c8.341 8.341 8.341 21.824 0 30.166l-28.522 28.502c41.024 1.75 75.563 16.896 105.238 46.528 30.229 30.208 46.87 70.379 46.87 113.13zM138.667 202.667c0 31.339 12.203 60.8 34.368 82.966 21.525 21.526 44.63 32.171 73.749 34.005l-27.2-27.2c-8.341-8.341-8.341-21.824 0-30.166 4.16-4.181 9.621-6.272 15.083-6.272s10.922 2.090 15.083 6.25l79.082 79.082-79.082 79.082c-8.341 8.341-21.824 8.341-30.166 0s-8.341-21.824 0-30.166l27.968-27.968c-40.832-1.834-75.2-16.981-104.683-46.486-30.23-30.208-46.87-70.378-46.87-113.13 0-41.558 13.184-72.469 44.075-103.339 4.16-4.16 9.621-6.229 15.083-6.229s10.922 2.091 15.083 6.25c8.341 8.341 8.341 21.846 0 30.187-23.018 22.976-31.573 42.795-31.573 73.13z" />
<glyph unicode="&#xe64f;" d="M85.334 277.333h74.666c15.702 0 29.718-8.341 39.488-21.355 6.934 12.885 15.552 24.81 25.408 35.456-17.131 17.558-39.808 28.565-64.896 28.565h-74.666c-11.797 0-21.334-9.558-21.334-21.333s9.536-21.334 21.334-21.334zM249.28 210.965c11.754 35.35 48.128 66.368 77.845 66.368h39.211l-27.584-27.584c-8.341-8.341-8.341-21.824 0-30.166 4.16-4.16 9.622-6.25 15.082-6.25s10.923 2.091 15.082 6.25l79.082 79.083-79.082 79.082c-8.341 8.341-21.824 8.341-30.166 0s-8.341-21.824 0-30.166l27.584-27.584h-39.211c-48.512 0-100.501-41.962-118.336-95.552l-10.070-30.102c-13.674-41.088-44.202-66.346-60.053-66.346h-53.334c-11.797 0-21.334-9.558-21.334-21.334s9.536-21.334 21.334-21.334h53.334c39.19 0 82.411 41.067 100.544 95.552l10.070 30.080zM338.752 185.749c-8.341-8.341-8.341-21.824 0-30.166l27.584-27.584h-49.877c-27.050 0-49.707 19.008-57.408 44.971-5.462-16-13.376-31.978-23.254-46.613 18.901-24.789 47.85-41.024 80.662-41.024h49.877l-27.584-27.584c-8.341-8.341-8.341-21.824 0-30.166 4.16-4.16 9.622-6.25 15.082-6.25s10.923 2.091 15.082 6.25l79.082 79.082-79.082 79.082c-8.341 8.341-21.824 8.341-30.166 0z" />
<glyph unicode="&#xe650;" d="M352 320h-44.502l27.584 27.584c8.341 8.341 8.341 21.824 0 30.166s-21.824 8.341-30.166 0l-79.082-79.083 79.082-79.082c4.16-4.16 9.622-6.25 15.082-6.25s10.923 2.091 15.082 6.25c8.341 8.342 8.341 21.824 0 30.166l-27.584 27.584h44.502c29.418 0 53.334-28.714 53.334-64s-28.714-64-64-64v0c-11.798 0-21.334-9.558-21.334-21.334s9.536-21.334 21.334-21.334v0c58.816 0 106.666 47.851 106.666 106.666s-43.072 106.666-96 106.666zM176.917 207.083c-8.341-8.341-8.341-21.824 0-30.166l27.584-27.584h-44.501c-29.418 0-53.334 28.714-53.334 64s28.715 64 64 64v0c11.798 0 21.334 9.558 21.334 21.333s-9.536 21.334-21.334 21.334v0c-58.816 0-106.666-47.851-106.666-106.667s43.072-106.666 96-106.666h44.501l-27.584-27.584c-8.341-8.341-8.341-21.824 0-30.166 4.16-4.16 9.621-6.25 15.083-6.25s10.923 2.091 15.083 6.25l79.083 79.082-79.082 79.082c-8.341 8.341-21.824 8.341-30.166 0z" />
<glyph unicode="&#xe651;" d="M130.582 192c-11.797 0-21.334-9.558-21.334-21.334s9.536-21.334 21.334-21.334h31.254l-70.251-70.25c-8.341-8.341-8.341-21.824 0-30.166 4.16-4.16 9.621-6.25 15.082-6.25s10.922 2.091 15.082 6.25l72.832 72.832v-36.416c0-11.776 9.536-21.334 21.334-21.334s18.752 9.558 18.752 21.334v106.666h-104.085zM149.333 234.667c11.776 0 21.333 9.558 21.333 21.333v42.667h42.666c11.798 0 21.334 9.558 21.334 21.333s-9.536 21.334-21.334 21.334h-85.312l-0.022-85.334c0-11.776 9.536-21.333 21.334-21.333zM362.666 192c-11.798 0-21.334-9.558-21.334-21.334v-42.666h-42.666c-11.798 0-21.334-9.558-21.334-21.334s9.536-21.334 21.334-21.334h85.334v85.334c0 11.776-9.536 21.334-21.334 21.334zM390.25 377.749l-70.25-70.25v33.835c0 11.776-9.536 21.333-21.334 21.333s-21.334-9.558-21.334-21.333v-106.667h106.666c11.776 0 21.334 9.558 21.334 21.334s-9.536 21.333-21.334 21.333h-33.834l70.25 70.23c8.341 8.341 8.341 21.824 0 30.166s-21.824 8.363-30.166 0.022z" />
<glyph unicode="&#xe652;" d="M320 384c-11.798 0-21.334-9.558-21.334-21.333s9.536-21.333 21.334-21.333h33.834l-70.25-70.25c-8.341-8.341-8.341-21.824 0-30.166 4.16-4.16 9.622-6.25 15.082-6.25s10.923 2.090 15.082 6.25l70.25 70.25v-33.834c0-11.776 9.536-21.334 21.334-21.334s21.334 9.557 21.334 21.334v106.666h-106.666zM198.25 185.749l-70.251-70.25v33.834c0 11.776-9.536 21.334-21.334 21.334s-21.334-9.558-21.334-21.334v-106.645h21.248c0.171 0 85.418-0.022 85.418-0.022 11.776 0 21.333 9.558 21.333 21.334s-9.536 21.334-21.334 21.334h-33.834l70.25 70.229c8.341 8.341 8.341 21.824 0 30.166s-21.824 8.363-30.166 0.022zM149.333 213.333c11.776 0 21.333 9.558 21.333 21.334v64h64c11.798 0 21.334 9.558 21.334 21.334s-9.536 21.333-21.334 21.333h-106.645l-0.022-106.666c0-11.776 9.536-21.334 21.333-21.334zM362.666 213.333c-11.798 0-21.334-9.558-21.334-21.334v-64h-64c-11.798 0-21.334-9.558-21.334-21.334s9.536-21.334 21.334-21.334h106.666v106.666c0 11.776-9.536 21.334-21.334 21.334z" />
<glyph unicode="&#xe653;" d="M352 298.667h-44.502l27.584 27.584c8.341 8.341 8.341 21.824 0 30.166s-21.824 8.341-30.166 0l-79.082-79.082 79.082-79.083c4.16-4.16 9.622-6.25 15.082-6.25s10.923 2.091 15.082 6.25c8.341 8.341 8.341 21.824 0 30.166l-27.584 27.584h44.502c29.418 0 53.334-28.715 53.334-64s-28.714-64-64-64h-170.667c-35.285 0-64 28.714-64 64s28.715 64 64 64v0c11.797 0 21.333 9.558 21.333 21.333s-9.536 21.334-21.334 21.334v0c-58.816 0-106.666-47.851-106.666-106.667s47.85-106.666 106.666-106.666h170.667c58.816 0 106.666 47.851 106.666 106.666s-43.072 106.667-96 106.667z" />
<glyph unicode="&#xe654;" d="M384 181.333c-11.798 0-21.334-9.536-21.334-21.334 0-51.498-36.714-94.592-85.334-104.49v157.824h85.334c11.798 0 21.334 9.536 21.334 21.334s-9.536 21.334-21.334 21.334h-85.334v25.258c24.789 8.81 42.666 32.234 42.666 60.075 0 35.35-28.651 64-64 64s-64-28.65-64-64c0-27.84 17.877-51.264 42.666-60.075v-25.258h-85.334c-11.798 0-21.334-9.536-21.334-21.334s9.536-21.334 21.334-21.334h85.334v-157.824c-48.618 9.92-85.334 52.992-85.334 104.49 0 11.798-9.536 21.334-21.334 21.334s-21.334-9.536-21.334-21.334c0-82.325 67.008-149.334 149.333-149.334s149.333 67.008 149.333 149.333c0 11.798-9.536 21.334-21.334 21.334zM256 362.667c11.755 0 21.334-9.578 21.334-21.333s-9.579-21.334-21.334-21.334-21.334 9.579-21.334 21.334 9.578 21.333 21.334 21.333z" />
<glyph unicode="&#xe655;" d="M432.747 317.461c-1.067 3.584-3.925 6.379-7.552 7.339-3.67 1.002-7.51-0.064-10.176-2.688l-55.808-54.55-40.832 8.171-8.128 40.683 56.426 55.147c2.688 2.624 3.798 6.464 2.923 10.112s-3.584 6.57-7.168 7.701c-11.328 3.541-21.717 5.291-31.765 5.291-58.816 0-106.666-47.851-106.666-106.667 0-6.89 0.81-13.866 2.518-21.546-11.989-9.877-23.381-18.389-36.288-28.032-18.453-13.781-39.36-29.376-67.882-53.462-16.746-14.635-26.346-35.392-26.346-56.96 0-41.173 33.493-74.666 74.666-74.666 21.781 0 42.517 9.728 56.79 26.666 24.512 28.736 40.342 49.834 54.272 68.459 9.43 12.608 17.75 23.702 27.37 35.413 7.68-1.728 14.678-2.538 21.568-2.538 58.816 0 106.666 47.851 106.666 106.666 0 9.322-1.45 18.667-4.587 29.462zM170.667 106.667c-11.797 0-21.333 9.536-21.333 21.334s9.536 21.334 21.334 21.334 21.334-9.536 21.334-21.334-9.536-21.334-21.334-21.334z" />
<glyph unicode="&#xe656;" d="M346.666 229.333c7.765 0 15.019-3.094 20.992-8.342 11.712-7.082 16.341 0.726 16.341 8.342v37.333c0 17.6-14.4 32-32 32h-58.666c-7.594 0-15.445 4.608-8.341 16.341 5.248 5.974 8.341 13.206 8.341 20.992 0 20.63-21.483 37.334-48 37.334s-48-16.704-48-37.334c0-6.4 2.026-12.288 5.44-17.558 10.816-14.358 2.901-19.776-5.44-19.776h-58.666c-17.6 0-32-14.4-32-32v-37.333c0-8.342 5.418-16.256 19.797-5.206 5.248 3.179 11.136 5.206 17.536 5.206 20.608 0 37.334-21.504 37.334-48s-16.726-48-37.334-48c-7.766 0-15.018 3.094-20.992 8.341-11.712 7.082-16.341-0.726-16.341-8.341v-58.666c0-17.6 14.4-32 32-32h58.666c8.341 0 16.256 5.418 5.184 19.776-3.157 5.269-5.184 11.158-5.184 17.558 0 20.63 21.483 37.334 48 37.334s48-16.704 48-37.334c0-7.786-3.094-15.019-8.341-20.992-7.104-11.733 0.747-16.341 8.341-16.341h58.666c17.6 0 32 14.4 32 32v58.666c0 8.341-5.418 16.256-19.798 5.205-5.248-3.178-11.136-5.205-17.536-5.205-20.608 0-37.334 21.504-37.334 48s16.726 48 37.334 48z" />
<glyph unicode="&#xe657;" d="M245.333 73.109c-37.035 0-71.85 14.421-98.048 40.598-26.176 26.197-40.618 61.014-40.618 98.070s14.442 71.872 40.618 98.070c8.341 8.341 21.824 8.341 30.166 0s8.341-21.824 0-30.166c-18.133-18.154-28.118-42.261-28.118-67.904s9.984-49.771 28.118-67.904c18.133-18.134 42.219-28.096 67.882-28.096s49.749 9.984 67.883 28.096c18.154 18.134 28.118 42.24 28.118 67.904s-9.984 49.771-28.118 67.904c-8.341 8.341-8.341 21.824 0 30.166s21.824 8.341 30.166 0c26.176-26.219 40.618-61.035 40.618-98.070s-14.442-71.872-40.618-98.070c-26.197-26.176-61.014-40.597-98.048-40.597zM245.333 234.667c-11.797 0-21.333 9.558-21.333 21.333v106.667c0 11.776 9.536 21.333 21.334 21.333s21.334-9.558 21.334-21.333v-106.667c0-11.776-9.536-21.333-21.334-21.333z" />
<glyph unicode="&#xe658;" d="M426.582 181.184l-127.914 73.088v127.062c0 17.642-14.358 32-32 32s-32-14.358-32-32v-127.062l-127.915-73.088c-9.365-5.354-13.269-16.853-9.088-26.794 4.203-9.942 15.168-15.211 25.514-12.224l111.488 31.829v-94.954l-34.666-27.733c-8.256-6.613-10.411-18.262-5.099-27.392s16.554-12.971 26.346-9.067l45.418 18.176 45.418-18.176c2.582-1.024 5.269-1.514 7.914-1.514 7.402 0 14.528 3.861 18.432 10.603 5.312 9.13 3.136 20.8-5.099 27.392l-34.666 27.733v94.954l111.488-31.851c1.942-0.555 3.925-0.832 5.846-0.832 8.406 0 16.256 4.971 19.67 13.056 4.182 9.942 0.298 21.44-9.088 26.794zM266.666 376c-5.888 0-10.666 4.779-10.666 10.667s4.779 10.666 10.666 10.666 10.666-4.778 10.666-10.666-4.779-10.667-10.666-10.667z" />
<glyph unicode="&#xe659;" d="M399.082 287.253c-8.341 8.341-21.824 8.341-30.166 0-26.966-26.966-70.848-26.966-97.834 0-43.626 43.606-114.582 43.563-158.166 0-8.341-8.341-8.341-21.824 0-30.166s21.824-8.341 30.166 0c7.978 7.978 17.494 13.312 27.584 16.555v-166.976c0-11.798 9.536-21.334 21.334-21.334s21.334 9.536 21.334 21.334v166.954c10.070-3.242 19.606-8.554 27.584-16.534 16.384-16.362 36.587-26.56 57.75-30.656v-119.766c0-11.798 9.536-21.334 21.334-21.334s21.334 9.536 21.334 21.334v119.766c21.163 4.075 41.365 14.293 57.75 30.656 8.341 8.32 8.341 21.824 0 30.166z" />
<glyph unicode="&#xe65a;" d="M285.312 318.229l79.168 79.147-9.344 9.258c-12.075 12.075-33.173 12.075-45.248 0l-33.834-33.834c-6.058-6.059-9.387-14.102-9.387-22.635s3.328-16.576 9.344-22.614l9.301-9.322zM141.781 193.301c-12.075 12.075-33.173 12.075-45.248 0l-33.834-33.834c-6.038-6.058-9.366-14.101-9.366-22.635s3.328-16.576 9.408-22.656l9.323-9.216 78.998 78.998-9.28 9.344zM393.322 368.448l-7.552 7.552-79.104-79.104 13.866-13.846c2.026-2.026 3.115-4.693 3.115-7.552s-1.11-5.525-3.115-7.552l-119.168-119.168c-4.032-4.010-11.050-4.032-15.083 0l-13.867 13.866-78.976-79.147 7.552-7.552c5.546-5.546 26.582-23.574 65.195-23.574 34.475 0 90.794 15.19 163.2 87.573 144.49 144.534 67.37 225.067 63.936 228.502z" />
<glyph unicode="&#xe65b;" d="M256 128c47.062 0 85.334 38.293 85.334 85.334v128c0 47.061-38.272 85.333-85.334 85.333s-85.334-38.272-85.334-85.333v-128c0-47.040 38.272-85.334 85.334-85.334zM405.334 213.333v42.667c0 11.776-9.536 21.334-21.334 21.334s-21.334-9.558-21.334-21.334v-42.667c0-58.816-47.851-106.666-106.666-106.666s-106.666 47.851-106.666 106.666v42.667c0 11.776-9.536 21.334-21.334 21.334s-21.334-9.558-21.334-21.334v-42.667c0-75.094 55.744-137.216 128-147.626v-23.040h-64c-11.798 0-21.334-9.536-21.334-21.334s9.536-21.334 21.334-21.334h170.666c11.798 0 21.334 9.536 21.334 21.334s-9.536 21.334-21.334 21.334h-64v23.040c72.256 10.411 128 72.534 128 147.627z" />
<glyph unicode="&#xe65c;" d="M217.6 332.8c-10.411 0-19.862-4.202-26.731-10.923-50.794-49.387-126.87-123.499-126.87-123.499s76.075-74.091 126.806-123.499c6.954-6.72 16.384-10.88 26.794-10.88 21.206 0 38.4 17.173 38.4 38.379v192c0 21.205-17.195 38.421-38.4 38.421zM409.6 332.8c-10.411 0-19.861-4.202-26.731-10.923-50.794-49.387-126.87-123.499-126.87-123.499s76.075-74.091 126.805-123.499c6.954-6.72 16.384-10.88 26.795-10.88 21.206 0 38.4 17.173 38.4 38.379v192c0 21.205-17.195 38.421-38.4 38.421z" />
<glyph unicode="&#xe65d;" d="M392.171 377.216c-7.978 3.307-17.152 1.472-23.253-4.63-26.966-26.944-70.848-26.965-97.834 0-43.626 43.584-114.56 43.584-158.166 0-4.011-3.99-6.251-9.429-6.251-15.082v-277.334c0-11.776 9.536-21.334 21.334-21.334s21.333 9.558 21.333 21.334v97.13c27.114 21.269 66.582 19.435 91.584-5.546 43.627-43.584 114.582-43.584 158.166 0 4.010 4.010 6.25 9.43 6.25 15.082v170.667c0 8.64-5.205 16.405-13.163 19.712z" />
<glyph unicode="&#xe65e;" d="M256 321.408l21.334 62.592c1.536 4.544 1.664 9.643 0 14.55-4.010 11.798-16.832 18.091-28.608 14.059-11.798-4.032-18.070-16.811-14.059-28.608l21.333-62.592zM85.334 234.667c-4.544 1.536-9.642 1.664-14.549 0-11.797-4.011-18.090-16.832-14.059-28.608 4.032-11.798 16.81-18.070 28.608-14.058l62.592 21.334-62.592 21.334zM256 105.259l-21.334-62.592c-1.536-4.544-1.664-9.642 0-14.55 4.011-11.798 16.832-18.091 28.608-14.058 11.798 4.032 18.070 16.81 14.058 28.608l-21.334 62.592zM455.274 220.651c-4.010 11.798-16.81 18.091-28.608 14.059l-62.592-21.334 62.592-21.334c4.544-1.536 9.642-1.664 14.55 0 11.776 4.010 18.070 16.832 14.058 28.608zM120.234 318.933l59.328-29.162-29.162 59.328c-2.133 4.309-5.654 8-10.282 10.283-11.178 5.504-24.683 0.896-30.186-10.283-5.483-11.158-0.874-24.683 10.304-30.166zM109.93 97.451c-5.483-11.158-0.874-24.661 10.282-30.166 11.157-5.483 24.683-0.875 30.166 10.283l29.162 59.328-59.328-29.163c-4.288-2.112-7.978-5.611-10.282-10.283zM391.744 107.755l-59.328 29.163 29.163-59.328c2.134-4.31 5.632-8 10.283-10.283 11.158-5.483 24.661-0.875 30.166 10.283s0.896 24.683-10.283 30.166zM402.005 329.259c5.504 11.178 0.896 24.683-10.262 30.187-11.158 5.482-24.683 0.875-30.166-10.283l-29.206-59.37 59.349 29.184c4.31 2.133 8 5.632 10.283 10.282zM256 309.333c-52.928 0-96-43.072-96-96s43.072-96 96-96 96 43.072 96 96-43.072 96-96 96z" />
<glyph unicode="&#xe65f;" d="M320 64c-28.63 0-57.28 10.901-79.082 32.683-27.008 26.986-70.891 26.966-97.834 0-8.341-8.341-21.824-8.341-30.166 0s-8.341 21.824 0 30.166c43.584 43.584 114.538 43.584 158.166 0 26.986-26.966 70.87-26.944 97.834 0 8.341 8.341 21.824 8.341 30.166 0s8.341-21.824 0-30.166c-21.781-21.781-50.432-32.683-79.082-32.683zM320 149.333c-28.63 0-57.28 10.901-79.082 32.683-27.008 26.986-70.891 26.966-97.834 0-8.341-8.341-21.824-8.341-30.166 0s-8.341 21.824 0 30.166c43.584 43.584 114.538 43.584 158.166 0 26.986-26.966 70.87-26.944 97.834 0 8.341 8.341 21.824 8.341 30.166 0s8.341-21.824 0-30.166c-21.781-21.781-50.432-32.683-79.082-32.683zM320 234.667c-28.63 0-57.28 10.901-79.082 32.683-27.008 26.986-70.891 26.966-97.834 0-8.341-8.341-21.824-8.341-30.166 0s-8.341 21.824 0 30.166c43.584 43.563 114.538 43.606 158.166 0 26.986-26.965 70.87-26.944 97.834 0 8.341 8.341 21.824 8.341 30.166 0s8.341-21.824 0-30.166c-21.781-21.781-50.432-32.683-79.082-32.683z" />
<glyph unicode="&#xe660;" d="M402.986 319.744c17.238 10.582 28.651 25.024 34.24 43.392-16.768-8.896-33.472-14.998-50.154-18.368-14.998 16.128-33.984 24.32-56.746 24.32-22.25 0-41.046-7.808-56.384-22.998-15.253-15.296-22.954-33.877-22.954-55.573 0-6.592 0.832-12.48 2.496-17.472-65.621 2.24-119.936 29.462-162.731 81.856-7.254-12.822-10.88-25.878-10.88-39.382 0-27.755 11.712-49.75 35.094-65.898-13.334 1.131-25.088 4.501-35.094 10.027 0-19.819 5.824-36.374 17.493-50.944 11.712-14.421 26.752-23.616 45.12-27.541-6.656-1.707-13.674-2.517-20.886-2.517-6.656 0-11.37 0.555-14.165 1.771 4.906-16.149 14.165-29.248 27.541-39.274 13.333-10.070 28.672-15.382 45.91-15.851-28.416-22.293-60.906-33.322-97.664-33.322-9.002 0-15.382 0.128-19.242 0.81 36.202-23.51 76.501-35.178 121.088-35.178 45.632 0 85.952 11.563 121.046 34.688 35.094 22.998 60.992 51.37 77.632 84.779 16.726 33.365 25.002 68.096 25.002 104.363v9.984c16.171 12.16 29.248 25.856 39.254 40.982-14.507-6.25-29.504-10.496-45.014-12.651z" />
<glyph unicode="&#xe661;" d="M277.334 256h64v-64h-64v-149.333h-64v149.333h-64v64h64v26.774c0 25.365 7.978 57.408 23.851 74.922 15.872 17.558 35.69 26.304 59.435 26.304h44.714v-64h-44.8c-10.624 0-19.2-8.576-19.2-19.178v-44.822z" />
<glyph unicode="&#xe662;" d="M256 405.333c-105.856 0-192-86.123-192-192s86.144-192 192-192 192 86.123 192 192-86.144 192-192 192zM404.522 228.8c-37.654 6.166-75.392 3.989-111.040-5.59-3.84 9.302-8.171 18.326-12.587 27.371 30.336 17.28 57.28 40.79 79.211 69.59 24.384-23.744 40.726-55.702 44.416-91.371zM344.106 333.632c-20.032-26.518-44.8-48.192-72.555-64.192-16.683 30.827-36.886 59.733-59.882 86.528 14.016 4.352 28.906 6.699 44.331 6.699 32.96 0 63.381-10.88 88.107-29.034zM190.869 347.499c23.872-26.986 44.65-56.426 61.696-87.829-43.968-20.416-93.781-27.606-143.296-19.179 8.704 47.189 39.68 86.57 81.6 107.008zM106.666 213.333c0 2.134 0.234 4.16 0.32 6.272 14.421-2.368 28.864-4.010 43.178-4.010 38.976 0 76.95 9.088 111.722 25.322 3.882-7.958 7.786-15.872 11.2-24.043-51.819-18.474-97.77-53.034-130.155-100.822-22.528 26.176-36.267 60.118-36.267 97.28zM157.718 101.184c30.506 45.418 73.92 78.358 122.965 95.722 14.57-39.552 23.957-80.96 27.563-123.286-16.277-6.123-33.856-9.622-52.245-9.622-37.654 0-72 14.101-98.282 37.184zM328.683 83.008c-4.182 41.216-13.462 81.536-27.584 120.149 33.365 8.618 68.736 10.368 103.915 4.053-2.176-53.376-32.341-99.584-76.331-124.202z" />
<glyph unicode="&#xe663;" d="M341.334 341.333h-170.667c-23.466 0-42.667-19.2-42.667-42.667v-170.666c0-23.466 19.2-42.666 42.666-42.666h170.666c23.466 0 42.666 19.2 42.666 42.666v170.667c0 23.466-19.2 42.666-42.666 42.666z" />
<glyph unicode="&#xe664;" d="M384 213.333c0 35.35-14.336 67.35-37.483 90.517-23.168 23.147-55.168 37.483-90.517 37.483-35.328 0-67.328-14.336-90.496-37.483-23.168-23.168-37.504-55.168-37.504-90.517 0-35.328 14.336-67.328 37.504-90.496s55.168-37.504 90.496-37.504c35.349 0 67.35 14.336 90.517 37.504 23.147 23.168 37.483 55.168 37.483 90.496z" />
<glyph unicode="&#xe665;" d="M221.781 76.096c56.341 54.912 140.886 137.238 140.886 137.238s-84.544 82.326-140.886 137.238c-7.744 7.446-18.197 12.096-29.781 12.096-23.552 0-42.667-19.114-42.667-42.666v-213.334c0-23.552 19.114-42.666 42.666-42.666 11.584 0 22.037 4.651 29.781 12.096z" />
<glyph unicode="&#xe666;" d="M321.13 321.877c-6.912 6.698-16.32 10.923-26.731 10.923-21.206 0-38.4-17.216-38.4-38.422v-192c0-21.206 17.194-38.379 38.4-38.379 10.411 0 19.84 4.16 26.731 10.923 50.794 49.365 126.87 123.456 126.87 123.456s-76.075 74.112-126.87 123.499zM129.131 321.877c-6.912 6.698-16.32 10.923-26.731 10.923-21.206 0-38.4-17.216-38.4-38.422v-192c0-21.206 17.195-38.379 38.4-38.379 10.41 0 19.84 4.16 26.731 10.923 50.794 49.365 126.869 123.456 126.869 123.456s-76.075 74.112-126.87 123.499z" />
<glyph unicode="&#xe667;" d="M362.666 128h-213.333c-23.552 0-42.666-19.094-42.666-42.666 0-23.552 19.115-42.666 42.666-42.666h213.333c23.552 0 42.666 19.115 42.666 42.666 0 23.574-19.115 42.666-42.666 42.666zM393.238 243.115c-54.912 56.341-137.238 140.886-137.238 140.886s-82.326-84.544-137.238-140.886c-7.445-7.744-12.096-18.197-12.096-29.782 0-23.552 19.114-42.666 42.666-42.666h213.333c23.552 0 42.666 19.115 42.666 42.666 0 11.584-4.651 22.038-12.096 29.782z" />
<glyph unicode="&#xe668;" d="M403.627 282.112c-7.019-41.152-25.834-80.171-56.512-116.907-30.635-36.8-57.813-63.082-81.472-78.827-14.912-7.062-27.584-7.253-38.101-0.726-10.518 6.613-18.838 16.022-24.939 28.267-3.52 6.998-12.054 33.472-25.643 79.531-13.568 45.974-21.696 70.72-24.298 74.219-1.77 3.477-6.144 3.925-13.142 1.301-7.040-2.603-11.84-4.821-14.464-6.592-2.624-1.728-4.822-3.52-6.57-5.226l-11.819 15.723 13.141 15.786c9.643 10.496 21.888 21.482 36.779 32.853 14.934 11.392 28.032 18.389 39.424 21.056 7.915 1.707 14.486 0.597 19.712-3.328 5.269-3.925 9.643-10.326 13.142-19.072 3.52-8.726 6.166-17.302 7.872-25.578 1.77-8.363 3.52-18.219 5.291-29.59 1.728-11.392 3.499-20.16 5.248-26.282 9.622-41.174 17.514-61.782 23.659-61.782 8.747 0 22.762 18.411 42.048 55.254 8.747 16.619 9.216 30.421 1.322 41.408-7.872 10.923-20.118 11.136-36.779 0.619 2.624 16.64 10.070 31.062 22.315 43.328 21.888 23.659 46.016 32.448 72.278 26.326 27.158-5.269 37.654-25.877 31.51-61.76z" />
<glyph unicode="&#xe669;" d="M331.243 87.019v44.075c-14.272-9.558-28.16-14.293-41.642-14.293-6.358 0-13.462 2.005-21.418 5.909-4.757 3.221-7.552 6.762-8.384 10.731-2.346 4.779-3.798 15.104-3.798 31.019v70.208h64v42.667h-64v71.594h-37.803c-3.179-16.682-6.357-28.544-9.558-35.69-3.925-8.747-10.282-16.683-19.008-23.808-8.768-7.19-17.856-12.31-27.413-15.466v-39.296h29.781v-96.448c0-11.094 1.558-20.565 4.757-28.522 2.368-6.358 7.125-12.693 14.315-19.050 5.525-5.589 13.462-10.325 23.786-14.293 12.694-3.2 23.766-4.757 33.323-4.757 11.094 0 21.418 1.195 30.933 3.563 11.115 2.389 21.824 6.358 32.128 11.861z" />
<glyph unicode="&#xe66a;" d="M440.918 185.344c1.259 9.11 1.899 18.048 1.899 26.688 0 51.99-18.048 96.939-53.611 133.611-35.947 37.013-80.106 55.786-131.243 55.786-5.952 0-11.648-0.277-17.088-0.81-16.128 7.466-33.451 11.221-51.755 11.221-34.326 0-65.13-13.013-89.046-37.653-23.573-24.214-36.075-55.147-36.075-89.43 0-17.75 3.328-34.538 9.942-50.090-1.002-7.616-1.493-15.211-1.493-22.656 0-52.010 18.198-97.002 54.016-133.696 36.118-36.95 80.384-55.68 131.499-55.68 5.418 0 11.67 0.426 19.115 1.28 14.72-6.038 30.058-9.088 45.781-9.088 33.877 0 64.534 13.099 88.683 37.909 23.829 24.384 36.459 55.466 36.459 89.834 0 14.442-2.368 28.779-7.082 42.774zM330.666 141.909c-6.058-9.11-15.552-16.661-28.565-22.72-12.992-5.184-27.947-7.786-44.8-7.786-20.352 0-37.462 3.69-51.286 11.072-9.963 5.589-17.77 12.757-23.381 21.397-6.059 9.536-9.131 18.389-9.131 26.624 0 5.184 1.963 9.75 5.845 13.632 3.925 3.925 8.875 5.846 14.934 5.846 4.331 0 8.661-1.536 12.992-4.544 3.456-3.456 6.037-7.808 7.766-12.992 0.448-0.426 3.264-5.397 8.448-14.933 2.176-3.008 6.059-6.038 11.669-9.067 5.226-2.603 12.118-3.904 20.8-3.904 11.69 0 21.44 2.582 29.226 7.765 6.912 4.779 10.368 10.816 10.368 18.197 0 6.058-1.962 10.624-5.846 13.632-3.904 3.925-8.853 6.912-14.912 9.11-1.728 0.448-4.010 1.002-6.805 1.6-2.837 0.661-6.080 1.514-9.75 2.624-3.669 1.088-6.827 1.834-9.408 2.262-14.698 3.008-27.243 6.912-37.674 11.69-9.088 3.456-17.302 9.494-24.661 18.155-6.037 8.234-9.088 17.984-9.088 29.226 0 11.264 3.243 21.206 9.75 29.867 6.486 8.661 15.786 15.168 27.904 19.478 12.138 4.779 26.006 7.125 41.578 7.125 11.69 0 22.741-1.494 33.11-4.544 9.984-3.456 17.984-7.574 24.043-12.352 5.611-5.184 10.176-10.368 13.632-15.552 3.029-6.912 4.565-12.565 4.565-16.875 0-5.654-1.962-10.411-5.866-14.272-4.288-4.352-9.301-6.528-14.912-6.528-4.757 0-8.875 1.302-12.33 3.925-2.176 2.155-4.971 6.037-8.448 11.669-2.582 6.058-6.699 11.456-12.31 16.256-5.184 3.883-13.205 5.824-24.042 5.824-10.816 0-19.030-2.176-24.661-6.507-6.059-3.925-9.088-8.448-9.088-13.632 0-3.456 1.066-6.315 3.243-8.448 2.176-3.050 4.95-5.44 8.448-7.168 2.176-1.28 5.845-2.816 11.050-4.523 1.302-0.448 4.202-1.216 8.746-2.262 4.544-1.131 8.341-1.856 11.37-2.282 6.038-1.302 16.448-4.096 31.168-8.448 8.661-3.008 16.875-6.891 24.661-11.691 7.382-5.163 12.779-11.029 16.256-17.493 3.456-7.786 5.163-16.448 5.163-25.962-0.043-11.69-3.286-22.528-9.771-32.49z" />
<glyph unicode="&#xe66b;" d="M266.368 367.552c-90.24 0-135.744-64.704-135.744-118.656 0-32.704 12.394-61.739 38.891-72.555 4.374-1.792 8.256-0.086 9.514 4.714 0.875 3.349 2.944 11.798 3.882 15.296 1.302 4.714 0.79 6.4-2.709 10.56-7.659 9.002-12.544 20.736-12.544 37.27 0 48 35.904 90.966 93.525 90.966 51.029 0 79.062-31.211 79.062-72.79 0-54.784-24.256-100.992-60.245-100.992-19.882 0-34.752 16.426-29.974 36.587 5.718 24.107 16.768 50.070 16.768 67.413 0 15.552-8.363 28.502-25.6 28.502-20.309 0-36.65-20.992-36.65-49.152 0-17.941 6.101-30.059 6.101-30.059s-20.822-88.086-24.448-103.51c-7.254-30.72-1.088-68.394-0.534-72.214 0.278-2.219 3.179-2.795 4.48-1.088 1.877 2.454 26.090 32.363 34.282 62.187 2.368 8.448 13.376 52.16 13.376 52.16 6.635-12.565 25.877-23.637 46.4-23.637 61.077 0 102.486 55.637 102.486 130.197-0.064 56.32-47.786 108.8-120.32 108.8z" />
<glyph unicode="&#xe66c;" d="M170.667 64h-64v213.334h64v-213.334zM405.334 64h-64v113.963c0 29.696-10.582 44.48-31.552 44.48-16.618 0-27.157-8.278-32.448-24.854 0-26.923 0-133.589 0-133.589h-64c0 0 0.853 192 0 213.334h50.517l3.904-42.667h1.322c13.12 21.334 34.091 35.798 62.848 35.798 21.866 0 39.552-6.080 53.056-21.355 13.589-15.296 20.352-35.819 20.352-64.64v-120.469zM171.733 330.667c0-17.673-14.804-32-33.066-32s-33.066 14.327-33.066 32c0 17.673 14.805 32 33.066 32s33.066-14.327 33.066-32z" />
<glyph unicode="&#xe66d;" d="M340.096 124.117c50.645 0 75.904 16.875 75.904 50.624 0 27.818-15.978 45.483-48.086 53.12l-23.872 5.013c-13.589 3.392-20.288 10.56-20.288 21.525 0 12.672 8.448 18.965 25.301 18.965 18.538 0 28.224-7.125 29.077-21.462l36.63 3.798c-2.432 31.21-23.659 46.827-63.19 46.827-43.072 0-64.555-17.75-64.555-53.227 0-25.216 13.952-41.28 41.77-48.022l25.344-5.034c16.853-4.182 25.301-11.84 25.301-22.784 0-13.462-13.099-20.245-39.296-20.245-31.957 0-53.099 15.616-63.19 46.827l-12.736 36.715c-7.552 24.427-16.982 41.536-28.459 51.221-11.306 9.6-29.162 14.571-53.738 14.571-22.805 0-42.816-8.448-60.053-25.344-17.302-16.875-25.962-39.21-25.962-67.030 0-26.091 8.171-46.998 24.662-62.613 16.512-15.637 36.010-23.445 58.794-23.445 22.805 0 40.917 5.462 54.4 16.426l-11.306 31.68c-11.819-11.861-25.834-17.771-41.814-17.771-13.44 0-25.066 5.291-34.731 15.872-9.707 10.496-14.635 24.256-14.635 41.109 0 21.099 5.269 36.438 15.851 46.144 10.602 9.707 22.528 14.528 36.032 14.528 14.379 0 24.64-3.776 31.083-11.306 6.315-7.616 11.946-19.456 17.002-35.456l11.456-36.715c13.483-42.966 45.952-64.512 97.302-64.512z" />
<glyph unicode="&#xe66e;" d="M307.947 192.576c5.738 0 10.496-2.837 14.635-8.448 4.096-5.654 6.272-12.544 6.272-20.8 0-8.214-2.176-15.168-6.272-20.757-4.118-5.654-8.896-8.448-14.635-8.448-5.93 0-11.136 2.795-15.253 8.448-4.096 5.589-6.272 12.544-6.272 20.757 0 8.256 2.176 15.147 6.272 20.8 4.096 5.632 9.301 8.448 15.253 8.448zM381.334 268.501c15.914-17.302 24-38.294 24-62.998 0-15.957-1.834-30.358-5.526-43.157-3.733-12.736-8.406-23.125-13.952-31.125-5.632-8.022-12.544-15.040-20.779-21.099-8.235-6.101-15.808-10.496-22.72-13.291-6.933-2.816-14.827-4.971-23.702-6.528-8.896-1.514-15.488-2.368-20.118-2.624-4.544-0.192-9.344-0.298-14.613-0.298-1.173 0-5.184-0.086-11.669-0.32-6.421-0.277-11.947-0.341-16.256-0.341s-9.834 0.064-16.256 0.341c-6.486 0.235-10.496 0.32-11.669 0.32-5.248 0-10.070 0.106-14.613 0.298-4.65 0.256-11.221 1.11-20.118 2.624-9.024 1.536-16.768 3.712-23.702 6.528-6.912 2.795-14.506 7.19-22.698 13.291-8.256 6.058-15.168 13.077-20.8 21.099-5.568 8-10.219 18.389-13.952 31.125-3.691 12.8-5.525 27.2-5.525 43.158 0 24.704 8.085 45.718 24 62.998-1.75 0.875-1.814 9.536-0.171 25.963 1.344 16.448 4.843 31.616 10.56 45.483 19.925-2.112 44.587-13.418 74.048-33.728 9.941 2.538 23.488 3.904 40.896 3.904 18.176 0 31.808-1.365 40.918-3.925 13.418 9.066 26.24 16.448 38.507 22.058 12.459 5.568 21.44 8.875 27.072 9.75l8.448 1.92c5.76-13.845 9.259-29.013 10.582-45.482 1.622-16.406 1.558-25.067-0.192-25.942zM256.64 101.675c36.010 0 63.019 4.31 81.514 12.95 18.24 8.618 27.563 26.411 27.563 53.248 0 15.574-5.824 28.587-17.536 38.998-5.93 5.611-13.077 9.067-21.099 10.368-8 1.302-20.245 1.302-36.693 0-16.406-1.322-27.69-1.92-33.75-1.92-8.214 0-17.066 0.384-28.138 1.258-11.094 0.853-19.797 1.387-26.090 1.664-6.272 0.192-12.992-0.576-20.438-2.304-7.36-1.75-13.418-4.779-18.197-9.067-11.114-10.005-16.853-22.976-16.853-38.998 0-26.837 9.088-44.63 27.306-53.248 18.133-8.64 45.078-12.95 81.109-12.95h1.301zM204.714 192.576c5.718 0 10.496-2.837 14.613-8.448 4.096-5.654 6.272-12.544 6.272-20.8 0-8.214-2.176-15.168-6.272-20.757-4.096-5.654-8.896-8.448-14.613-8.448-5.952 0-11.136 2.795-15.274 8.448-4.096 5.589-6.272 12.544-6.272 20.757 0 8.256 2.176 15.147 6.272 20.8 4.118 5.632 9.302 8.448 15.274 8.448z" />
<glyph unicode="&#xe66f;" d="M160 128c-47.061 0-85.334 38.272-85.334 85.334s38.272 85.334 85.334 85.334 85.334-38.272 85.334-85.334-38.272-85.334-85.334-85.334zM160 256c-23.53 0-42.666-19.136-42.666-42.667s19.136-42.666 42.666-42.666 42.666 19.136 42.666 42.666-19.136 42.667-42.666 42.667zM352 298.667c-47.062 0-85.334-38.272-85.334-85.334s38.272-85.334 85.334-85.334 85.334 38.272 85.334 85.334-38.272 85.334-85.334 85.334z" />
<glyph unicode="&#xe670;" d="M256 384c-94.101 0-170.667-76.565-170.667-170.666s76.566-170.667 170.667-170.667c34.474 0 67.669 10.219 95.978 29.526 9.728 6.656 12.245 19.925 5.611 29.654-6.635 9.75-19.882 12.202-29.654 5.611-21.205-14.486-46.080-22.123-71.936-22.123-70.592 0-128 57.408-128 128s57.408 128 128 128 128-57.408 128-128v-10.666c0-11.776-9.558-21.334-21.334-21.334s-21.334 9.558-21.334 21.334v64c0 11.798-9.536 21.334-21.334 21.334-9.408 0-17.173-6.187-20.010-14.678-12.373 9.109-27.498 14.678-43.989 14.678-41.173 0-74.667-33.494-74.667-74.667s33.493-74.666 74.666-74.666c22.293 0 42.133 10.026 55.808 25.579 11.69-15.424 30.038-25.579 50.858-25.579 35.286 0 64 28.714 64 64v10.666c0 94.101-76.565 170.667-170.667 170.667zM256 181.333c-17.642 0-32 14.358-32 32s14.357 32 32 32 32-14.357 32-32-14.358-32-32-32z" />
<glyph unicode="&#xe671;" d="M341.334 64c-17.11 0-33.173 6.656-45.269 18.752l-40.064 40.086-40.085-40.086c-24.171-24.171-66.326-24.171-90.517 0-12.075 12.075-18.73 28.16-18.73 45.248s6.656 33.173 18.752 45.269l40.064 40.064-40.064 40.086c-12.096 12.075-18.752 28.16-18.752 45.248s6.656 33.173 18.752 45.269c24.171 24.149 66.326 24.171 90.518-0.022l40.064-40.085 40.086 40.085c24.171 24.171 66.325 24.171 90.517 0 12.075-12.075 18.731-28.16 18.731-45.248s-6.656-33.173-18.752-45.269l-40.064-40.064 40.064-40.086c12.096-12.075 18.752-28.16 18.752-45.248s-6.656-33.173-18.752-45.269c-12.075-12.075-28.139-18.731-45.248-18.731zM256 183.168l70.25-70.25c8.064-8.064 22.123-8.043 30.166 0 4.032 4.032 6.25 9.365 6.25 15.082s-2.219 11.050-6.25 15.082l-70.229 70.25 70.23 70.25c4.032 4.032 6.25 9.387 6.25 15.083s-2.219 11.050-6.25 15.083c-8.064 8.085-22.123 8.064-30.166 0.021l-70.25-70.272-70.25 70.251c-8.064 8.064-22.123 8.042-30.166 0-4.032-4.032-6.25-9.387-6.25-15.083s2.219-11.050 6.25-15.083l70.23-70.25-70.23-70.25c-4.032-4.032-6.25-9.365-6.25-15.082s2.219-11.050 6.25-15.082c8.064-8.086 22.123-8.064 30.166-0.022l70.25 70.272z" />
<glyph unicode="&#xe672;" d="M256 21.333c-35.286 0-64 28.714-64 64l1.131 65.13-64.746-1.13c-35.669 0-64.384 28.714-64.384 64s28.715 64 64 64l65.13 1.152-1.131 62.464c0 35.669 28.715 64.384 64 64.384s64-28.714 64-64l1.173-62.848 63.211-1.152c34.901 0 63.616-28.715 63.616-64s-28.714-64-64-64l-62.827 1.13-1.173-65.514c0-34.901-28.714-63.616-64-63.616zM234.667 192v-107.050c0-11.37 9.578-20.95 21.333-20.95s21.334 9.579 21.334 21.334v106.666h107.050c11.37 0 20.95 9.579 20.95 21.334s-9.579 21.334-21.334 21.334h-106.666v106.667c0 12.139-9.579 21.333-21.334 21.333s-21.334-9.578-21.334-21.333v-106.667h-106.666c-12.139 0-21.334-9.578-21.334-21.334s9.579-21.334 21.334-21.334h106.666z" />
<glyph unicode="&#xe673;" d="M384 128h-256c-35.285 0-64 28.714-64 64s28.715 64 64 64h256c35.286 0 64-28.714 64-64s-28.714-64-64-64zM128 213.333c-11.755 0-21.334-9.579-21.334-21.334s9.579-21.334 21.334-21.334h256c11.755 0 21.334 9.579 21.334 21.334s-9.579 21.334-21.334 21.334h-256z" />
<glyph unicode="&#xe674;" d="M234.667 42.667c-17.088 0-33.173 6.656-45.248 18.752l-85.334 85.334c-12.096 12.075-18.752 28.16-18.752 45.248s6.656 33.174 18.752 45.27c24.17 24.17 66.325 24.17 90.496 0l25.344-25.344 65.472 117.824c11.221 20.309 32.704 32.938 55.978 32.938 10.816 0 21.589-2.794 31.062-8.064 14.933-8.32 25.728-21.931 30.442-38.358 4.714-16.448 2.709-33.728-5.611-48.683l-106.666-192c-9.685-17.45-27.286-29.526-47.061-32.298-2.965-0.406-5.91-0.618-8.875-0.618zM149.333 213.333c-5.718 0-11.050-2.219-15.083-6.25s-6.25-9.365-6.25-15.082 2.219-11.050 6.25-15.082l85.334-85.334c4.757-4.714 11.157-7.040 18.006-6.038 6.656 0.918 12.501 4.95 15.722 10.752l106.666 192c2.774 4.97 3.435 10.731 1.877 16.213s-5.184 10.027-10.197 12.8c-10.091 5.632-23.488 1.664-28.95-8.278l-92.95-167.275-65.322 65.322c-4.053 4.032-9.387 6.25-15.104 6.25z" />
<glyph unicode="&#xe675;" d="M192 426.667h-106.666c-23.531 0-42.666-19.115-42.666-42.666v-106.666c0-23.552 19.136-42.667 42.666-42.667h106.666c23.53 0 42.666 19.114 42.666 42.667v106.666c0 23.552-19.136 42.667-42.666 42.667zM192 277.333h-106.666v106.666h106.666v-106.666zM426.666 426.667h-106.666c-23.552 0-42.666-19.115-42.666-42.666v-106.666c0-23.552 19.115-42.667 42.666-42.667h106.666c23.552 0 42.666 19.114 42.666 42.667v106.666c0 23.552-19.115 42.667-42.666 42.667zM426.666 277.333h-106.666v106.666h106.666v-106.666zM192 192h-106.666c-23.531 0-42.666-19.115-42.666-42.666v-106.666c0-23.552 19.136-42.666 42.666-42.666h106.666c23.53 0 42.666 19.115 42.666 42.666v106.666c0 23.552-19.136 42.666-42.666 42.666zM192 42.667h-106.666v106.666h106.666v-106.666zM426.666 192h-106.666c-23.552 0-42.666-19.115-42.666-42.666v-106.666c0-23.552 19.115-42.666 42.666-42.666h106.666c23.552 0 42.666 19.115 42.666 42.666v106.666c0 23.552-19.115 42.666-42.666 42.666zM426.666 42.667h-106.666v106.666h106.666v-106.666z" />
<glyph unicode="&#xe676;" d="M384 213.333h-256c-35.285 0-64 28.715-64 64s28.715 64 64 64h256c35.286 0 64-28.715 64-64s-28.714-64-64-64zM128 298.667c-11.776 0-21.334-9.578-21.334-21.333s9.558-21.334 21.334-21.334h256c11.776 0 21.334 9.578 21.334 21.334s-9.558 21.333-21.334 21.333h-256zM384 64h-256c-35.285 0-64 28.714-64 64s28.715 64 64 64h256c35.286 0 64-28.714 64-64s-28.714-64-64-64zM128 149.333c-11.776 0-21.334-9.579-21.334-21.334s9.558-21.334 21.334-21.334h256c11.776 0 21.334 9.579 21.334 21.334s-9.558 21.334-21.334 21.334h-256z" />
<glyph unicode="&#xe677;" d="M256 288c-35.286 0-64 28.714-64 64s28.714 64 64 64 64-28.714 64-64-28.714-64-64-64zM256 373.333c-11.776 0-21.334-9.579-21.334-21.334s9.558-21.333 21.334-21.333 21.334 9.578 21.334 21.333-9.558 21.334-21.334 21.334zM256 10.667c-35.286 0-64 28.714-64 64s28.714 64 64 64 64-28.714 64-64-28.714-64-64-64zM256 96c-11.776 0-21.334-9.579-21.334-21.334s9.558-21.334 21.334-21.334 21.334 9.579 21.334 21.334-9.558 21.334-21.334 21.334zM384 149.333h-256c-35.285 0-64 28.714-64 64s28.715 64 64 64h256c35.286 0 64-28.715 64-64s-28.714-64-64-64zM128 234.667c-11.776 0-21.334-9.578-21.334-21.334s9.558-21.334 21.334-21.334h256c11.776 0 21.334 9.579 21.334 21.334s-9.558 21.334-21.334 21.334h-256z" />
<glyph unicode="&#xe678;" d="M213.333 42.667c-17.109 0-33.173 6.656-45.269 18.752-12.075 12.075-18.731 28.16-18.731 45.248s6.656 33.173 18.752 45.269l61.398 61.398-61.398 61.418c-12.096 12.075-18.752 28.16-18.752 45.248s6.656 33.173 18.752 45.269c24.171 24.149 66.326 24.171 90.518-0.022l151.915-151.915-151.936-151.914c-12.075-12.096-28.138-18.752-45.248-18.752zM213.333 341.333c-5.718 0-11.050-2.219-15.083-6.23-4.032-4.053-6.25-9.408-6.25-15.104s2.219-11.050 6.25-15.082l91.563-91.584-91.563-91.584c-4.032-4.032-6.25-9.365-6.25-15.082s2.219-11.050 6.25-15.082c8.064-8.086 22.123-8.064 30.166-0.022l121.771 121.771-121.77 121.75c-4.032 4.032-9.365 6.25-15.083 6.25z" />
<glyph unicode="&#xe679;" d="M277.334 42.667c-17.11 0-33.173 6.656-45.269 18.752l-151.915 151.915 151.936 151.914c24.171 24.171 66.346 24.171 90.517 0 12.075-12.074 18.731-28.16 18.731-45.248s-6.656-33.173-18.752-45.269l-61.397-61.398 61.397-61.418c12.096-12.075 18.752-28.16 18.752-45.248s-6.656-33.173-18.752-45.269c-12.075-12.075-28.139-18.731-45.248-18.731zM140.48 213.333l121.77-121.75c8.064-8.064 22.123-8.043 30.166 0 4.032 4.032 6.25 9.365 6.25 15.082s-2.219 11.050-6.25 15.082l-91.563 91.584 91.563 91.584c4.032 4.032 6.25 9.386 6.25 15.082s-2.219 11.050-6.25 15.082c-8.064 8.086-22.123 8.064-30.166 0.022l-121.77-121.771z" />
<glyph unicode="&#xe67a;" d="M256 21.333c-17.088 0-33.173 6.656-45.248 18.752s-18.774 28.181-18.752 45.291c0 15.914 5.781 21.291 16.298 42.624h-103.168c-35.285 0-64 28.736-64 64 0 35.286 28.715 64 64 64h103.168c-10.538 21.333-16.298 26.774-16.298 42.688 0.022 17.109 6.656 33.152 18.774 45.248 24.149 24.149 66.304 24.171 90.475-0.021l151.914-151.915-151.914-151.914c-12.075-12.096-28.16-18.752-45.248-18.752zM105.13 213.333c-11.776 0-21.334-9.579-21.334-21.334s9.558-21.334 21.334-21.334h206.038l-70.25-70.25c-4.032-4.032-6.25-9.365-6.25-15.062 0-5.738 2.219-11.072 6.25-15.104 8.085-8.064 22.080-8.064 30.166 0l121.75 121.75-121.75 121.75c-8.086 8.064-22.080 8.064-30.166 0-4.032-4.032-6.25-9.365-6.25-15.061 0-5.718 2.219-11.072 6.25-15.104l70.25-70.251h-206.037z" />
<glyph unicode="&#xe67b;" d="M233.131 21.333c-17.088 0-33.173 6.656-45.248 18.752l-151.915 151.915 151.915 151.915c24.171 24.192 66.326 24.192 90.496 0 12.075-12.032 18.752-28.096 18.752-45.206 0-15.914-5.76-30.954-16.298-42.709h103.168c35.286 0 64-28.714 64-64s-28.714-64-64-64h-103.168c10.517-11.712 16.298-26.709 16.298-42.624 0.043-17.11-6.656-33.216-18.752-45.312-12.096-12.075-28.16-18.731-45.248-18.731zM96.299 192l121.749-121.75c8.085-8.064 22.080-8.064 30.166 0 4.032 4.032 6.25 9.408 6.25 15.104s-2.219 11.029-6.208 15.040l-70.293 70.272h206.037c11.776 0 21.334 9.579 21.334 21.334s-9.558 21.334-21.334 21.334h-206.037l70.251 70.251c4.032 4.032 6.25 9.408 6.25 15.104s-2.219 11.030-6.23 15.040c-8.128 8.107-22.102 8.085-30.186 0.022l-121.749-121.75z" />
<glyph unicode="&#xe67c;" d="M128 128h-42.666c-23.552 0-42.666-19.115-42.666-42.666v-42.666c0-23.552 19.114-42.666 42.666-42.666h42.666c23.552 0 42.666 19.115 42.666 42.666v42.666c0 23.552-19.114 42.666-42.666 42.666zM128 42.667h-42.666v42.666h42.666v-42.666zM128 277.333h-42.666c-23.552 0-42.666-19.115-42.666-42.667v-42.667c0-23.552 19.114-42.666 42.666-42.666h42.666c23.552 0 42.666 19.115 42.666 42.666v42.667c0 23.552-19.114 42.667-42.666 42.667zM128 192h-42.666v42.667h42.666v-42.667zM128 426.667h-42.666c-23.552 0-42.666-19.115-42.666-42.666v-42.666c0-23.552 19.114-42.667 42.666-42.667h42.666c23.552 0 42.666 19.115 42.666 42.667v42.666c0 23.552-19.114 42.666-42.666 42.666zM128 341.333h-42.666v42.666h42.666v-42.666zM277.334 128h-42.666c-23.552 0-42.666-19.115-42.666-42.666v-42.666c0-23.552 19.114-42.666 42.666-42.666h42.666c23.552 0 42.666 19.115 42.666 42.666v42.666c0 23.552-19.115 42.666-42.666 42.666zM277.334 42.667h-42.666v42.666h42.666v-42.666zM277.334 277.333h-42.666c-23.552 0-42.666-19.115-42.666-42.667v-42.667c0-23.552 19.114-42.666 42.666-42.666h42.666c23.552 0 42.666 19.115 42.666 42.666v42.667c0 23.552-19.115 42.667-42.666 42.667zM277.334 192h-42.666v42.667h42.666v-42.667zM277.334 426.667h-42.666c-23.552 0-42.666-19.115-42.666-42.666v-42.666c0-23.552 19.114-42.667 42.666-42.667h42.666c23.552 0 42.666 19.115 42.666 42.667v42.666c0 23.552-19.115 42.666-42.666 42.666zM277.334 341.333h-42.666v42.666h42.666v-42.666zM426.666 128h-42.666c-23.552 0-42.666-19.115-42.666-42.666v-42.666c0-23.552 19.115-42.666 42.666-42.666h42.666c23.552 0 42.666 19.115 42.666 42.666v42.666c0 23.552-19.115 42.666-42.666 42.666zM426.666 42.667h-42.666v42.666h42.666v-42.666zM426.666 277.333h-42.666c-23.552 0-42.666-19.115-42.666-42.667v-42.667c0-23.552 19.115-42.666 42.666-42.666h42.666c23.552 0 42.666 19.115 42.666 42.666v42.667c0 23.552-19.115 42.667-42.666 42.667zM426.666 192h-42.666v42.667h42.666v-42.667zM426.666 426.667h-42.666c-23.552 0-42.666-19.115-42.666-42.666v-42.666c0-23.552 19.115-42.667 42.666-42.667h42.666c23.552 0 42.666 19.115 42.666 42.667v42.666c0 23.552-19.115 42.666-42.666 42.666zM426.666 341.333h-42.666v42.666h42.666v-42.666z" />
<glyph unicode="&#xe67d;" d="M405.334 85.333c11.733 0 21.334-9.6 21.334-21.334s-9.6-21.334-21.334-21.334h-298.666c-11.733 0-21.334 9.6-21.334 21.334s9.6 21.334 21.334 21.334h298.666zM405.334 128h-298.666c-35.285 0-64-28.714-64-64s28.715-64 64-64h298.666c35.286 0 64 28.714 64 64s-28.714 64-64 64zM405.334 234.667c11.733 0 21.334-9.6 21.334-21.334s-9.6-21.334-21.334-21.334h-298.666c-11.733 0-21.334 9.6-21.334 21.334s9.6 21.334 21.334 21.334h298.666zM405.334 277.333h-298.666c-35.285 0-64-28.715-64-64s28.715-64 64-64h298.666c35.286 0 64 28.714 64 64s-28.714 64-64 64zM405.334 384c11.733 0 21.334-9.6 21.334-21.333s-9.6-21.333-21.334-21.333h-298.666c-11.733 0-21.334 9.6-21.334 21.333s9.6 21.334 21.334 21.334h298.666zM405.334 426.667h-298.666c-35.285 0-64-28.714-64-64s28.715-64 64-64h298.666c35.286 0 64 28.715 64 64s-28.714 64-64 64z" />
<glyph unicode="&#xe67e;" d="M405.334 85.333c11.733 0 21.334-9.6 21.334-21.334s-9.6-21.334-21.334-21.334h-149.334c-11.733 0-21.334 9.6-21.334 21.334s9.6 21.334 21.334 21.334h149.333zM405.334 128h-149.334c-35.286 0-64-28.714-64-64s28.714-64 64-64h149.333c35.286 0 64 28.714 64 64s-28.714 64-64 64zM405.334 234.667c11.733 0 21.334-9.6 21.334-21.334s-9.6-21.334-21.334-21.334h-149.334c-11.733 0-21.334 9.6-21.334 21.334s9.6 21.334 21.334 21.334h149.333zM405.334 277.333h-149.334c-35.286 0-64-28.715-64-64s28.714-64 64-64h149.333c35.286 0 64 28.714 64 64s-28.714 64-64 64zM405.334 384c11.733 0 21.334-9.6 21.334-21.333s-9.6-21.333-21.334-21.333h-149.334c-11.733 0-21.334 9.6-21.334 21.333s9.6 21.334 21.334 21.334h149.333zM405.334 426.667h-149.334c-35.286 0-64-28.714-64-64s28.714-64 64-64h149.333c35.286 0 64 28.715 64 64s-28.714 64-64 64zM128 128h-42.666c-23.552 0-42.666-19.115-42.666-42.666v-42.666c0-23.552 19.114-42.666 42.666-42.666h42.666c23.552 0 42.666 19.115 42.666 42.666v42.666c0 23.552-19.114 42.666-42.666 42.666zM128 42.667h-42.666v42.666h42.666v-42.666zM128 277.333h-42.666c-23.552 0-42.666-19.115-42.666-42.667v-42.667c0-23.552 19.114-42.666 42.666-42.666h42.666c23.552 0 42.666 19.115 42.666 42.666v42.667c0 23.552-19.114 42.667-42.666 42.667zM128 192h-42.666v42.667h42.666v-42.667zM128 426.667h-42.666c-23.552 0-42.666-19.115-42.666-42.666v-42.666c0-23.552 19.114-42.667 42.666-42.667h42.666c23.552 0 42.666 19.115 42.666 42.667v42.666c0 23.552-19.114 42.666-42.666 42.666zM128 341.333h-42.666v42.666h42.666v-42.666z" />
<glyph unicode="&#xe67f;" d="M448 384h-384c-23.552 0-42.666-19.114-42.666-42.666v-256c0-23.552 19.114-42.666 42.666-42.666h384c23.552 0 42.666 19.115 42.666 42.666v256c0 23.552-19.115 42.666-42.666 42.666zM64 341.333h170.667v-256h-170.667v256zM448 85.333h-192v256h192.064l-0.064-256zM426.666 181.333c0 5.866-4.8 10.666-10.666 10.666h-21.334c-5.866 0-10.666-4.8-10.666-10.666v-64c0-5.866 4.8-10.666 10.666-10.666h21.334c5.866 0 10.666 4.8 10.666 10.666v64zM362.666 309.333c0 5.866-4.8 10.666-10.666 10.666h-64c-5.866 0-10.666-4.8-10.666-10.666v-106.667c0-5.866 4.8-10.666 10.666-10.666h64c5.866 0 10.666 4.8 10.666 10.666v106.667zM394.666 256h21.334c5.866 0 10.666 4.8 10.666 10.666s-4.8 10.667-10.666 10.667h-21.334c-5.866 0-10.666-4.8-10.666-10.667s4.8-10.666 10.666-10.666zM394.666 213.333h21.334c5.866 0 10.666 4.8 10.666 10.666s-4.8 10.667-10.666 10.667h-21.334c-5.866 0-10.666-4.8-10.666-10.667s4.8-10.666 10.666-10.666zM288 149.333h64c5.866 0 10.666 4.8 10.666 10.666s-4.8 10.666-10.666 10.666h-64c-5.866 0-10.666-4.8-10.666-10.666s4.8-10.666 10.666-10.666zM352 128h-64c-5.866 0-10.666-4.8-10.666-10.666s4.8-10.666 10.666-10.666h64c5.866 0 10.666 4.8 10.666 10.666s-4.8 10.666-10.666 10.666zM394.666 298.667h21.334c5.866 0 10.666 4.8 10.666 10.667s-4.8 10.666-10.666 10.666h-21.334c-5.866 0-10.666-4.8-10.666-10.666s4.8-10.667 10.666-10.667zM213.333 309.333c0 5.866-4.8 10.666-10.667 10.666h-106.666c-5.867 0-10.666-4.8-10.666-10.666v-64c0-5.867 4.8-10.666 10.666-10.666h106.666c5.867 0 10.666 4.8 10.666 10.666v64zM202.688 170.667h-106.666c-5.846 0-10.666-4.8-10.666-10.666s4.822-10.666 10.666-10.666h106.666c5.845 0 10.645 4.8 10.645 10.666s-4.8 10.666-10.645 10.666zM202.688 213.333h-106.666c-5.846 0-10.666-4.8-10.666-10.666s4.822-10.666 10.666-10.666h106.666c5.845 0 10.645 4.8 10.645 10.666s-4.8 10.666-10.645 10.666zM202.688 128h-106.666c-5.846 0-10.666-4.8-10.666-10.666s4.822-10.666 10.666-10.666h106.666c5.845 0 10.645 4.8 10.645 10.666s-4.8 10.666-10.645 10.666z" />
<glyph unicode="&#xe680;" d="M474.923 246.016c-72.32 60.886-203.648 174.314-204.95 175.466l-13.974 12.011-13.91-12.011c-1.322-1.13-132.714-114.517-206.080-175.957-9.344-8.405-14.678-20.16-14.678-32.192 0-23.552 19.114-42.666 42.666-42.666h21.333v-128c0-23.552 19.114-42.666 42.666-42.666h256c23.552 0 42.666 19.115 42.666 42.666v128h21.334c23.552 0 42.666 19.115 42.666 42.666 0 12.758-5.866 24.768-15.744 32.683zM298.666 42.667h-85.334v106.666h85.334v-106.666zM384 213.333l0.043-170.667c-0.043 0-64.043 0-64.043 0v128h-128v-128h-64v170.667h-64.022c58.987 49.323 156.054 132.843 192.022 163.84 35.968-30.998 132.992-114.496 192-163.862 0 0-64 0-64 0.022z" />
<glyph unicode="&#xe681;" d="M256 21.333c-35.286 0-64 28.714-64 64v101.632c-24.384-21.846-64.534-20.885-87.915 2.454-24.96 24.939-24.96 65.558 0 90.496l151.915 151.914 151.914-151.914c24.96-24.939 24.96-65.558 0-90.496-23.339-23.36-63.552-24.32-87.914-2.454v-101.632c0-35.286-28.714-64-64-64zM234.667 289.835v-204.502c0-11.755 9.558-21.334 21.333-21.334s21.334 9.579 21.334 21.334v204.502l70.25-70.251c8.086-8.064 22.080-8.064 30.166 0 8.341 8.342 8.341 21.824 0 30.166l-121.75 121.749-121.75-121.749c-8.341-8.341-8.341-21.824 0-30.166 8.085-8.064 22.080-8.064 30.166 0l70.25 70.251z" />
</font>
</defs>
</svg>
